<svg width="71" height="71" viewBox="0 0 71 71" fill="none" xmlns="http://www.w3.org/2000/svg">
<path fill-rule="evenodd" clip-rule="evenodd" d="M36.5714 0.00463867L38.6354 5.0669L44.0771 5.46994L39.9111 9.00175L41.2102 14.3132L36.5714 11.4336L31.9325 14.3132L33.2316 9.00175L29.0655 5.46994L34.5072 5.0669L36.5714 0.00463867ZM6.44386 51.1654L15.3125 66.8703C15.7414 67.6297 15.4722 68.6027 14.7145 69.0323L11.698 70.7434C10.9403 71.1732 9.96947 70.9034 9.54062 70.1441L0.672103 54.4391C0.243402 53.6797 0.512391 52.7069 1.2701 52.2769L4.28664 50.566C5.04435 50.1362 6.01516 50.406 6.44386 51.1654ZM4.41037 53.5195C3.82181 53.6057 3.41449 54.1538 3.50047 54.7437C3.58644 55.3336 4.13342 55.7418 4.72198 55.6556C5.31054 55.5693 5.71786 55.0213 5.63188 54.4314C5.54576 53.8415 4.99878 53.4332 4.41037 53.5195ZM34.182 55.6732C35.5115 55.8361 36.6053 55.428 36.9748 54.0455C37.3081 52.7984 36.5225 51.6266 35.3493 51.2165C31.6421 50.5356 28.0482 49.2335 25.2221 48.2095C21.1526 46.7351 20.081 46.3903 16.0676 48.7191L9.82067 52.3441L15.9101 63.1273C16.0256 63.1235 16.1422 63.1334 16.2541 63.1632L32.48 67.5206C34.5028 68.0639 36.4125 67.8193 38.2011 66.7159C45.6606 62.1205 53.1153 57.5166 60.5714 52.9151C61.2806 52.4775 61.6296 51.4652 61.5274 50.4768C61.4438 49.6679 61.0455 48.9308 60.3045 48.5546C59.1331 47.96 57.1048 48.1341 53.9754 49.9608L41.6484 57.1565C39.687 58.3014 37.6078 58.6163 35.379 58.2591C32.0146 57.6917 28.8564 56.702 25.5742 55.8209C24.9455 55.6525 24.5721 55.0052 24.7401 54.3754C24.9081 53.7452 25.5539 53.371 26.1825 53.5393C28.8444 54.2538 31.4834 55.1134 34.182 55.6732ZM51.0273 30.7824L38.9184 45.4896L42.9547 30.7824H51.0273ZM34.16 45.4111L22.1157 30.7823H30.1453L34.16 45.4111ZM32.5824 30.7824L36.5498 45.2388L40.5173 30.7824H32.5824ZM21.7911 28.4176L25.6132 21.4544L29.4352 28.4176H21.7911ZM27.6292 20.23L31.4283 27.1513L35.2273 20.23H27.6292ZM37.9156 20.23H45.5136L41.7146 27.1513L37.9156 20.23ZM47.5297 21.4544L43.7077 28.4176H51.3517L47.5297 21.4544ZM39.7214 28.4176H33.4215L36.5715 22.6788L39.7214 28.4176ZM70.7759 34.285L65.7248 36.3535L65.3226 41.8073L61.7986 37.632L56.4991 38.934L59.3723 34.285L56.4991 29.6358L61.7986 30.9378L65.3226 26.7626L65.7248 32.2164L70.7759 34.285ZM60.7576 10.0452L58.6455 15.0875L62.2089 19.229L56.7713 18.7739L53.9425 23.4503L52.694 18.1267L47.3822 16.8754L52.0482 14.0404L51.5942 8.59072L55.7265 12.1621L60.7576 10.0452ZM2.367 34.285L7.41806 32.2164L7.82022 26.7626L11.3442 30.9378L16.6439 29.6358L13.7707 34.285L16.6439 38.934L11.3442 37.632L7.82022 41.8073L7.41806 36.3535L2.367 34.285ZM12.3852 10.0451L14.4973 15.0874L10.9338 19.2288L16.3714 18.7738L19.2002 23.4501L20.4487 18.1265L25.7605 16.8753L21.0945 14.0402L21.5485 8.59057L17.4162 12.1618L12.3852 10.0451Z" fill="black"/>
</svg>
