<svg width="55" height="55" viewBox="0 0 55 55" fill="none" xmlns="http://www.w3.org/2000/svg">
<path d="M54.6028 28.2127C54.6296 27.3353 54.6124 26.4585 54.5511 25.5823C54.4911 24.7062 54.3883 23.8345 54.2427 22.9673C54.0971 22.1014 53.9093 21.245 53.6794 20.3983C53.4495 19.5502 53.1781 18.7156 52.8652 17.8944C52.5549 17.0731 52.2036 16.2698 51.8116 15.4843C51.4207 14.6989 50.9929 13.9332 50.528 13.1873C50.0605 12.444 49.5586 11.7243 49.0222 11.0282C48.4858 10.3334 47.9162 9.66613 47.3133 9.02626C46.7118 8.38767 46.0796 7.77973 45.4167 7.20244C44.7551 6.62516 44.0667 6.08236 43.3515 5.57404C42.635 5.06317 41.8962 4.58933 41.135 4.15254C40.3725 3.71574 39.5909 3.31726 38.7901 2.9571C37.9893 2.59693 37.1725 2.27764 36.3398 1.99921C35.5084 1.71823 34.6641 1.4794 33.8071 1.28272C32.9514 1.08603 32.0881 0.931492 31.217 0.8191C30.3473 0.705431 29.4724 0.636463 28.5924 0.612197C27.7163 0.586653 26.8395 0.603256 25.9621 0.662007C25.0859 0.722034 24.2149 0.824847 23.349 0.970446C22.4818 1.11604 21.6248 1.30379 20.778 1.53368C19.93 1.76357 19.096 2.03434 18.276 2.34597C17.4548 2.6576 16.6508 3.00882 15.8641 3.39964C15.0786 3.79046 14.3129 4.21831 13.567 4.68321C12.8237 5.14938 12.104 5.65067 11.408 6.18709C10.7132 6.7235 10.0459 7.29312 9.40599 7.89595C8.7674 8.4975 8.15882 9.12971 7.58026 9.79256C7.00298 10.4529 6.46018 11.1413 5.95186 11.8578C5.44099 12.573 4.96715 13.3112 4.53036 14.0724C4.09356 14.8336 3.69508 15.6152 3.33492 16.4173C2.97475 17.2181 2.65418 18.0342 2.3732 18.8657C2.0935 19.6984 1.8553 20.5426 1.65862 21.3983C1.46066 22.254 1.30548 23.1174 1.19309 23.9884C1.08197 24.8595 1.01236 25.7343 0.984267 26.613C0.958723 27.4904 0.975327 28.3672 1.03408 29.2434C1.0941 30.1195 1.19692 30.9906 1.34252 31.8565C1.48811 32.7224 1.67522 33.5794 1.90384 34.4274C2.13373 35.2755 2.40449 36.1101 2.71612 36.9314C3.02648 37.7513 3.3777 38.5553 3.7698 39.3433C4.15934 40.1288 4.58719 40.8945 5.05336 41.6403C5.51826 42.3849 6.01891 43.1046 6.55533 43.7994C7.09174 44.4955 7.66072 45.1634 8.26228 45.8033C8.8651 46.4419 9.49731 47.0505 10.1589 47.629C10.8192 48.205 11.5076 48.7478 12.2241 49.2574C12.9393 49.7683 13.6775 50.2421 14.4387 50.6789C15.2012 51.117 15.9822 51.5161 16.7817 51.8763C17.5838 52.2377 18.4005 52.5583 19.232 52.838C20.0634 53.119 20.9076 53.3578 21.7646 53.5545C22.6203 53.7525 23.4837 53.9076 24.3547 54.02C25.2232 54.1324 26.0975 54.202 26.9774 54.2288C27.8574 54.2544 28.7348 54.2378 29.6097 54.179C30.4871 54.1203 31.3594 54.0181 32.2266 53.8725C33.0926 53.7269 33.9502 53.5398 34.7995 53.3112C35.6488 53.0813 36.4835 52.8105 37.3034 52.4989C38.1272 52.1873 38.9318 51.8361 39.7173 51.4452C40.5053 51.0544 41.2716 50.6259 42.0162 50.1597C42.7621 49.6936 43.4824 49.1923 44.1772 48.6559C44.8746 48.1195 45.5425 47.5492 46.1811 46.9451C46.821 46.3435 47.4302 45.7113 48.0088 45.0485C48.586 44.3856 49.1295 43.6959 49.6391 42.9794C50.1499 42.2642 50.6238 41.5254 51.0606 40.7629C51.4974 40.0004 51.8958 39.2188 52.256 38.418C52.6162 37.6159 52.9367 36.7985 53.2177 35.9658C53.4974 35.1331 53.7356 34.2882 53.9323 33.4312C54.1303 32.5743 54.2848 31.7096 54.3959 30.8373C54.507 29.9663 54.576 29.0914 54.6028 28.2127ZM19.64 41.4698L31.9393 27.4081L19.64 13.3463L22.5137 10.8175L37.0352 27.4081L22.5137 43.9986L19.64 41.4698Z" fill="white"/>
</svg>
