<svg width="55" height="54" viewBox="0 0 55 54" fill="none" xmlns="http://www.w3.org/2000/svg">
<path d="M54.2845 27.6121C54.3113 26.7347 54.294 25.8579 54.2327 24.9818C54.1727 24.1056 54.0699 23.2339 53.9243 22.3667C53.7787 21.5008 53.591 20.6445 53.3611 19.7977C53.1312 18.9496 52.8598 18.115 52.5469 17.2938C52.2365 16.4725 51.8853 15.6692 51.4932 14.8837C51.1024 14.0983 50.6745 13.3326 50.2096 12.5867C49.7422 11.8434 49.2402 11.1237 48.7038 10.4277C48.1674 9.73287 47.5978 9.06554 46.995 8.42567C46.3934 7.78708 45.7612 7.17914 45.0984 6.60186C44.4368 6.02457 43.7484 5.48177 43.0332 4.97345C42.3167 4.46258 41.5778 3.98875 40.8166 3.55195C40.0541 3.11516 39.2725 2.71668 38.4717 2.35651C37.6709 1.99635 36.8542 1.67705 36.0214 1.39863C35.19 1.11765 34.3458 0.878816 33.4888 0.68213C32.6331 0.485444 31.7697 0.330906 30.8987 0.218514C30.0289 0.104845 29.154 0.0358771 28.2741 0.0116107C27.3979 -0.0139329 26.5211 0.0026705 25.6437 0.0614208C24.7676 0.121448 23.8965 0.224261 23.0306 0.36986C22.1634 0.515458 21.3064 0.703203 20.4596 0.933096C19.6116 1.16299 18.7776 1.43375 17.9576 1.74538C17.1364 2.05701 16.3324 2.40824 15.5457 2.79906C14.7602 3.18987 13.9946 3.61773 13.2487 4.08262C12.5054 4.54879 11.7857 5.05009 11.0896 5.5865C10.3948 6.12292 9.7275 6.69254 9.08763 7.29537C8.44904 7.89692 7.84046 8.52912 7.2619 9.19198C6.68462 9.85228 6.14182 10.5407 5.6335 11.2572C5.12263 11.9724 4.64879 12.7106 4.212 13.4718C3.7752 14.233 3.37672 15.0146 3.01656 15.8167C2.65639 16.6175 2.33582 17.4336 2.05484 18.2651C1.77514 19.0978 1.53694 19.942 1.34026 20.7977C1.1423 21.6534 0.987118 22.5168 0.874726 23.3878C0.763612 24.2589 0.694006 25.1337 0.665908 26.0124C0.640364 26.8899 0.656967 27.7666 0.715718 28.6428C0.775745 29.5189 0.878558 30.39 1.02416 31.2559C1.16975 32.1218 1.35686 32.9788 1.58548 33.8269C1.81537 34.6749 2.08613 35.5096 2.39776 36.3308C2.70812 37.1507 3.05934 37.9547 3.45144 38.7427C3.84098 39.5282 4.26883 40.2939 4.735 41.0397C5.1999 41.7843 5.70055 42.504 6.23697 43.1988C6.77338 43.8949 7.34236 44.5628 7.94392 45.2027C8.54675 45.8413 9.17895 46.4499 9.84053 47.0284C10.5008 47.6044 11.1892 48.1472 11.9057 48.6568C12.6209 49.1677 13.3592 49.6415 14.1204 50.0783C14.8828 50.5164 15.6638 50.9155 16.4633 51.2757C17.2654 51.6371 18.0822 51.9577 18.9136 52.2374C19.7451 52.5184 20.5893 52.7572 21.4463 52.9539C22.302 53.1519 23.1653 53.3071 24.0364 53.4194C24.9049 53.5318 25.7791 53.6014 26.6591 53.6283C27.539 53.6538 28.4165 53.6372 29.2913 53.5785C30.1688 53.5197 31.0411 53.4175 31.9083 53.2719C32.7742 53.1263 33.6318 52.9392 34.4812 52.7106C35.3305 52.4807 36.1651 52.21 36.9851 51.8983C37.8088 51.5867 38.6135 51.2355 39.3989 50.8447C40.187 50.4538 40.9533 50.0253 41.6979 49.5592C42.4437 49.093 43.1641 48.5917 43.8589 48.0553C44.5562 47.5189 45.2242 46.9486 45.8627 46.3445C46.5026 45.743 47.1118 45.1107 47.6904 44.4479C48.2677 43.785 48.8111 43.0954 49.3207 42.3789C49.8316 41.6636 50.3054 40.9248 50.7422 40.1623C51.179 39.3998 51.5775 38.6182 51.9377 37.8174C52.2978 37.0153 52.6184 36.1979 52.8994 35.3652C53.1791 34.5325 53.4173 33.6876 53.6139 32.8307C53.8119 31.9737 53.9665 31.109 54.0776 30.2367C54.1887 29.3657 54.2576 28.4908 54.2845 27.6121ZM19.3217 40.8692L31.6209 26.8075L19.3217 12.7457L22.1953 10.2169L36.7169 26.8075L22.1953 43.3981L19.3217 40.8692Z" fill="white"/>
</svg>
