<svg width="1366" height="527" viewBox="0 0 1366 527" fill="none" xmlns="http://www.w3.org/2000/svg">
<rect y="14" width="1364" height="498" rx="6" fill="#FF6D4D"/>
<path d="M1364.44 526.035H1350.4V498H1364.44V526.035ZM1336.35 526.035H1322.31V498H1336.35V526.035ZM1308.26 526.035H1294.21V498H1308.26V526.035ZM1280.17 526.035H1266.12V498H1280.17V526.035ZM1252.08 526.035H1238.03V498H1252.08V526.035ZM1223.99 526.035H1209.94V498H1223.99V526.035ZM1195.89 526.035H1181.85V498H1195.89V526.035ZM1167.8 526.035H1153.76V498H1167.8V526.035ZM1139.71 526.035H1125.66V498H1139.71V526.035ZM1111.62 526.035H1097.57V498H1111.62V526.035ZM1083.53 526.035H1069.48V498H1083.53V526.035ZM1055.44 526.035H1041.39V498H1055.44V526.035ZM1027.34 526.035H1013.3V498H1027.34V526.035ZM999.253 526.035H985.207V498H999.253V526.035ZM971.161 526.035H957.115V498H971.161V526.035ZM943.07 526.035H929.024V498H943.07V526.035ZM914.978 526.035H900.932V498H914.978V526.035ZM886.886 526.035H872.841V498H886.886V526.035ZM858.795 526.035H844.749V498H858.795V526.035ZM830.703 526.035H816.657V498H830.703V526.035ZM802.611 526.035H788.566V498H802.611V526.035ZM774.52 526.035H760.474V498H774.52V526.035ZM746.428 526.035H732.382V498H746.428V526.035ZM718.337 526.035H704.291V498H718.337V526.035ZM690.245 526.035H676.199V498H690.245V526.035ZM662.153 526.035H648.107V498H662.153V526.035ZM634.062 526.035H620.016V498H634.062V526.035ZM605.97 526.035H591.924V498H605.97V526.035ZM577.878 526.035H563.833V498H577.878V526.035ZM549.787 526.035H535.741V498H549.787V526.035ZM521.695 526.035H507.649V498H521.695V526.035ZM493.603 526.035H479.558V498H493.603V526.035ZM465.512 526.035H451.466V498H465.512V526.035ZM437.42 526.035H423.374V498H437.42V526.035ZM409.329 526.035H395.283V498H409.329V526.035ZM381.237 526.035H367.191V498H381.237V526.035ZM353.145 526.035H339.1V498H353.145V526.035ZM325.054 526.035H311.008V498H325.054V526.035ZM296.962 526.035H282.916V498H296.962V526.035ZM268.87 526.035H254.825V498H268.87V526.035ZM240.779 526.035H226.733V498H240.779V526.035ZM212.687 526.035H198.641V498H212.687V526.035ZM184.596 526.035H170.55V498H184.596V526.035ZM156.504 526.035H142.458V498H156.504V526.035ZM128.412 526.035H114.367V498H128.412V526.035ZM100.321 526.035H86.2749V498H100.321V526.035ZM72.2291 526.035H58.1833V498H72.2291V526.035ZM44.1374 526.035H30.0916V498H44.1374V526.035ZM16.0458 526.035H2V498H16.0458V526.035Z" fill="black"/>
<path d="M16.0458 0H2V28.0354H16.0458V0Z" fill="black"/>
<path d="M44.1374 0H30.0916V28.0354H44.1374V0Z" fill="black"/>
<path d="M72.2291 0H58.1833V28.0354H72.2291V0Z" fill="black"/>
<path d="M100.321 0H86.2749V28.0354H100.321V0Z" fill="black"/>
<path d="M128.412 0H114.367V28.0354H128.412V0Z" fill="black"/>
<path d="M156.504 0H142.458V28.0354H156.504V0Z" fill="black"/>
<path d="M184.596 0H170.55V28.0354H184.596V0Z" fill="black"/>
<path d="M212.687 0H198.641V28.0354H212.687V0Z" fill="black"/>
<path d="M240.779 0H226.733V28.0354H240.779V0Z" fill="black"/>
<path d="M268.87 0H254.825V28.0354H268.87V0Z" fill="black"/>
<path d="M296.962 0H282.916V28.0354H296.962V0Z" fill="black"/>
<path d="M325.054 0H311.008V28.0354H325.054V0Z" fill="black"/>
<path d="M353.145 0H339.1V28.0354H353.145V0Z" fill="black"/>
<path d="M381.237 0H367.191V28.0354H381.237V0Z" fill="black"/>
<path d="M409.329 0H395.283V28.0354H409.329V0Z" fill="black"/>
<path d="M437.42 0H423.374V28.0354H437.42V0Z" fill="black"/>
<path d="M465.512 0H451.466V28.0354H465.512V0Z" fill="black"/>
<path d="M493.603 0H479.558V28.0354H493.603V0Z" fill="black"/>
<path d="M521.695 0H507.649V28.0354H521.695V0Z" fill="black"/>
<path d="M549.787 0H535.741V28.0354H549.787V0Z" fill="black"/>
<path d="M577.878 0H563.833V28.0354H577.878V0Z" fill="black"/>
<path d="M605.97 0H591.924V28.0354H605.97V0Z" fill="black"/>
<path d="M634.062 0H620.016V28.0354H634.062V0Z" fill="black"/>
<path d="M662.153 0H648.107V28.0354H662.153V0Z" fill="black"/>
<path d="M690.245 0H676.199V28.0354H690.245V0Z" fill="black"/>
<path d="M718.337 0H704.291V28.0354H718.337V0Z" fill="black"/>
<path d="M746.428 0H732.382V28.0354H746.428V0Z" fill="black"/>
<path d="M774.52 0H760.474V28.0354H774.52V0Z" fill="black"/>
<path d="M802.611 0H788.566V28.0354H802.611V0Z" fill="black"/>
<path d="M830.703 0H816.657V28.0354H830.703V0Z" fill="black"/>
<path d="M858.795 0H844.749V28.0354H858.795V0Z" fill="black"/>
<path d="M886.886 0H872.841V28.0354H886.886V0Z" fill="black"/>
<path d="M914.978 0H900.932V28.0354H914.978V0Z" fill="black"/>
<path d="M943.07 0H929.024V28.0354H943.07V0Z" fill="black"/>
<path d="M971.161 0H957.115V28.0354H971.161V0Z" fill="black"/>
<path d="M999.253 0H985.207V28.0354H999.253V0Z" fill="black"/>
<path d="M1027.34 0H1013.3V28.0354H1027.34V0Z" fill="black"/>
<path d="M1055.44 0H1041.39V28.0354H1055.44V0Z" fill="black"/>
<path d="M1083.53 0H1069.48V28.0354H1083.53V0Z" fill="black"/>
<path d="M1111.62 0H1097.57V28.0354H1111.62V0Z" fill="black"/>
<path d="M1139.71 0H1125.67V28.0354H1139.71V0Z" fill="black"/>
<path d="M1167.8 0H1153.76V28.0354H1167.8V0Z" fill="black"/>
<path d="M1195.89 0H1181.85V28.0354H1195.89V0Z" fill="black"/>
<path d="M1223.99 0H1209.94V28.0354H1223.99V0Z" fill="black"/>
<path d="M1252.08 0H1238.03V28.0354H1252.08V0Z" fill="black"/>
<path d="M1280.17 0H1266.12V28.0354H1280.17V0Z" fill="black"/>
<path d="M1308.26 0H1294.21V28.0354H1308.26V0Z" fill="black"/>
<path d="M1336.35 0H1322.31V28.0354H1336.35V0Z" fill="black"/>
<path d="M1364.44 0H1350.4V28.0354H1364.44V0Z" fill="black"/>
</svg>
