<svg width="134" height="108" viewBox="0 0 134 108" fill="none" xmlns="http://www.w3.org/2000/svg">
<path d="M124.386 0.672852H9.56932C4.75367 0.672852 0.835938 4.59058 0.835938 9.40623V99.1559C0.835938 103.972 4.75367 107.889 9.56932 107.889H124.386C129.202 107.889 133.119 103.972 133.119 99.1559V9.40623C133.119 4.59058 129.202 0.672852 124.386 0.672852ZM51.0983 10.8547C52.9262 10.8547 54.4121 12.3405 54.4121 14.1684C54.4121 15.9964 52.9262 17.4822 51.0983 17.4822C49.2704 17.4822 47.7845 15.9964 47.7845 14.1684C47.7845 12.3405 49.2704 10.8547 51.0983 10.8547ZM36.1971 10.8547C38.025 10.8547 39.5108 12.3405 39.5108 14.1684C39.5108 15.9964 38.025 17.4822 36.1971 17.4822C34.3691 17.4822 32.8833 15.9964 32.8833 14.1684C32.8833 12.3405 34.3691 10.8547 36.1971 10.8547ZM21.2958 10.8547C23.1237 10.8547 24.6096 12.3405 24.6096 14.1684C24.6096 15.9964 23.1237 17.4822 21.2958 17.4822C19.4679 17.4822 17.982 15.9964 17.982 14.1684C17.982 12.3405 19.4679 10.8547 21.2958 10.8547ZM124.963 99.1559C124.963 99.4632 124.693 99.7331 124.386 99.7331H9.56932C9.26199 99.7331 8.99208 99.4632 8.99208 99.1559V27.0494H124.963V99.1559Z" fill="black"/>
<path d="M34.8262 86.8976C45.5986 86.8976 54.3641 78.1322 54.3641 67.3598C54.3641 66.9295 54.014 66.5794 53.5837 66.5794H35.6065V48.6022C35.6065 48.172 35.2565 47.8219 34.8262 47.8219C24.0538 47.8219 15.2883 56.5873 15.2883 67.3598C15.2883 78.1322 24.0538 86.8976 34.8262 86.8976Z" fill="black"/>
<path d="M39.9971 62.9663H58.7547C59.1849 62.9663 59.535 62.6162 59.535 62.186C59.535 51.4136 50.7696 42.6481 39.9971 42.6481C39.5669 42.6481 39.2168 42.9982 39.2168 43.4285V62.186C39.2168 62.6162 39.5669 62.9663 39.9971 62.9663ZM87.7982 42.894H97.4135C97.6291 42.894 97.813 42.9702 97.9654 43.1225C98.1177 43.2748 98.1938 43.4588 98.1938 43.6743V79.439C98.1938 79.6545 98.1177 79.8385 97.9654 79.9908C97.8128 80.1431 97.6289 80.2193 97.4135 80.2193H87.7982C87.5827 80.2193 87.3987 80.1431 87.2464 79.9908C87.0941 79.8383 87.0179 79.6544 87.0179 79.439V43.6743C87.0179 43.4588 87.0941 43.2748 87.2464 43.1225C87.3989 42.9702 87.5828 42.894 87.7982 42.894ZM103.501 49.2596H113.116C113.332 49.2596 113.516 49.3358 113.668 49.4881C113.821 49.6406 113.897 49.8246 113.897 50.04V79.439C113.897 79.6545 113.821 79.8385 113.668 79.9908C113.516 80.1431 113.332 80.2193 113.116 80.2193H103.501C103.286 80.2193 103.102 80.1431 102.949 79.9908C102.797 79.8383 102.721 79.6544 102.721 79.439V50.04C102.721 49.8244 102.797 49.6404 102.949 49.4881C103.102 49.3358 103.286 49.2596 103.501 49.2596ZM71.9162 60.5772H81.8922C82.1078 60.5772 82.2918 60.6534 82.4441 60.8057C82.5964 60.9582 82.6726 61.1422 82.6726 61.3576V79.439C82.6726 79.6545 82.5964 79.8385 82.4441 79.9908C82.2916 80.1431 82.1076 80.2193 81.8922 80.2193H71.9162C71.7006 80.2193 71.5167 80.1431 71.3644 79.9908C71.212 79.8383 71.1359 79.6544 71.1359 79.439V61.3576C71.1359 61.142 71.212 60.958 71.3644 60.8057C71.5169 60.6534 71.7008 60.5772 71.9162 60.5772ZM66.8734 81.4994H118.141C118.356 81.4994 118.54 81.5755 118.692 81.7279C118.845 81.8802 118.921 82.0641 118.921 82.2797V86.6437C118.921 86.8593 118.845 87.0433 118.692 87.1956C118.54 87.3479 118.356 87.4241 118.141 87.4241H66.8734C66.6578 87.4241 66.4739 87.3479 66.3215 87.1956C66.1692 87.0433 66.0931 86.8593 66.0931 86.6437V82.2797C66.0931 82.0641 66.1692 81.8802 66.3215 81.7279C66.4741 81.5755 66.658 81.4994 66.8734 81.4994Z" fill="black"/>
</svg>
