<svg width="109" height="110" viewBox="0 0 109 110" fill="none" xmlns="http://www.w3.org/2000/svg">
<path fill-rule="evenodd" clip-rule="evenodd" d="M0.00272493 12.3711C0.00272493 9.3846 4.33536 6.47438 11.3411 4.18816C18.9682 1.69486 29.5464 0.155273 41.2717 0.155273C52.9971 0.155273 63.5753 1.69486 71.2023 4.18816C78.2081 6.4771 82.5407 9.3846 82.5407 12.3711C82.5407 15.3576 78.2081 18.2651 71.2023 20.5541C63.5753 23.0447 52.9971 24.587 41.2717 24.587C29.5464 24.587 18.9682 23.0447 11.3411 20.5541C4.33536 18.2651 0.00272493 15.3576 0.00272493 12.3711ZM11.3411 48.7434C18.9682 51.234 29.5464 52.7763 41.2717 52.7763C52.9971 52.7763 63.5753 51.234 71.2023 48.7434C78.2081 46.4545 82.5407 43.5443 82.5407 40.5605V19.911C82.5407 19.5459 82.1266 19.3388 81.8323 19.5567C79.4725 21.3089 76.2516 22.8485 72.3604 24.121C64.3737 26.7315 53.3759 28.3446 41.2717 28.3446C29.1676 28.3446 18.1725 26.7315 10.1831 24.121C6.29185 22.8485 3.07099 21.3062 0.711206 19.5567C0.416914 19.3388 0.00272493 19.5459 0.00272493 19.911V40.5605C0.00272493 43.5443 4.33536 46.4545 11.3411 48.7434ZM82.0939 64.8478C82.3391 64.8478 82.538 64.6488 82.538 64.4036V48.0976C82.538 47.7325 82.1238 47.5254 81.8295 47.7434C79.4698 49.4955 76.2489 51.0351 72.3577 52.3076C64.3682 54.9181 53.3731 56.5313 41.269 56.5313C29.1649 56.5313 18.1698 54.9154 10.1803 52.3076C6.28913 51.0378 3.06827 49.4955 0.708481 47.7434C0.414189 47.5254 0 47.7325 0 48.0976V68.7471C0 71.7336 4.33263 74.6411 11.3384 76.9301C18.9655 79.4207 29.5437 80.963 41.269 80.963C42.5688 80.963 43.6697 80.9521 44.5825 80.9276C44.9368 80.9194 45.2937 80.9085 45.6561 80.8948C45.8959 80.8867 46.0867 80.6905 46.0867 80.4507V71.4938C46.0867 69.6654 46.8333 68.0032 48.0377 66.7988L48.1603 66.6871C49.3566 65.5508 50.967 64.8505 52.73 64.8505H82.0939V64.8478ZM46.1494 85.0149C46.1194 84.7942 45.9232 84.6334 45.6997 84.6416C45.3618 84.6525 45.0185 84.6634 44.6724 84.6716C43.3699 84.7043 42.2336 84.7206 41.2717 84.7206C29.1676 84.7206 18.1725 83.1075 10.1831 80.497C6.29185 79.2272 3.07099 77.6849 0.711206 75.9328C0.416914 75.7148 0.00272493 75.9219 0.00272493 76.287V96.9365C0.00272493 99.923 4.33808 102.831 11.3411 105.119C18.9682 107.61 29.5491 109.152 41.2717 109.152C43.0102 109.152 44.6098 109.125 46.0731 109.071C46.3755 109.06 46.5717 108.754 46.4709 108.468C46.2257 107.776 46.0921 107.035 46.0921 106.264V93.6448C46.0921 91.8164 46.8388 90.1541 48.0432 88.9525L48.1222 88.8789L48.0432 88.7999C47.035 87.7944 46.351 86.4782 46.1494 85.0149ZM50.6945 86.1594C50.1686 85.6335 49.8444 84.9114 49.8444 84.113V71.4938C49.8444 70.7009 50.1713 69.9788 50.6945 69.4556L50.7708 69.3739C51.2831 68.8997 51.9725 68.6054 52.7328 68.6054H106.114C106.907 68.6054 107.629 68.9324 108.152 69.4556C108.676 69.9788 109.003 70.7009 109.003 71.4938V84.113C109.003 84.9087 108.681 85.6308 108.161 86.1512C107.629 86.6744 106.907 87.0014 106.114 87.0014H52.7328C51.9344 87.0014 51.2123 86.6771 50.6945 86.1594ZM74.7856 77.8048C74.7856 78.843 75.6276 79.6823 76.6631 79.6823H103.01C104.049 79.6823 104.888 78.8402 104.888 77.8048C104.888 76.7666 104.046 75.9273 103.01 75.9273H76.6631C75.6249 75.9246 74.7856 76.7666 74.7856 77.8048ZM55.8256 77.8048C55.8256 78.843 56.6676 79.685 57.703 79.685C58.7412 79.685 59.5805 78.843 59.5805 77.8048C59.5805 76.7666 58.7385 75.9273 57.703 75.9273C56.6676 75.9246 55.8256 76.7666 55.8256 77.8048ZM109 93.6448V106.264C109 107.06 108.678 107.782 108.158 108.302C107.626 108.825 106.904 109.152 106.111 109.152H52.73C52.3595 109.152 52.0052 109.081 51.681 108.956L51.5883 108.918C51.2504 108.774 50.9452 108.564 50.6918 108.31C50.1659 107.784 49.8416 107.062 49.8416 106.264V93.6448C49.8416 92.8518 50.1686 92.1297 50.6918 91.6065L50.7681 91.5248C51.2804 91.0506 51.9698 90.7563 52.73 90.7563H106.111C106.904 90.7563 107.626 91.0833 108.15 91.6065C108.673 92.1297 109 92.8518 109 93.6448ZM59.5832 100.095C59.5832 99.0565 58.7412 98.2172 57.7058 98.2172C56.6676 98.2172 55.8283 99.0592 55.8283 100.097C55.8283 101.136 56.6703 101.978 57.7058 101.978C58.7412 101.975 59.5832 101.133 59.5832 100.095ZM104.888 99.9557C104.888 98.9175 104.046 98.0782 103.01 98.0782H76.6631C75.6249 98.0782 74.7856 98.9202 74.7856 99.9557C74.7856 100.994 75.6276 101.833 76.6631 101.833H103.01C104.046 101.833 104.888 100.991 104.888 99.9557Z" fill="black"/>
</svg>
