<svg width="90" height="89" viewBox="0 0 90 89" fill="none" xmlns="http://www.w3.org/2000/svg">
<rect x="0.767578" y="-0.334961" width="88.8079" height="88.8079" rx="6" fill="black"/>
<path d="M45.1689 30.2241C33.3512 30.2241 23.2588 37.5747 19.1699 47.9507C23.2588 58.3266 33.3512 65.6772 45.1689 65.6772C56.9866 65.6772 67.0789 58.3266 71.1678 47.9507C67.0789 37.5747 56.9984 30.2241 45.1689 30.2241ZM45.1689 59.7684C38.6455 59.7684 33.3512 54.474 33.3512 47.9507C33.3512 41.4273 38.6455 36.133 45.1689 36.133C51.6922 36.133 56.9866 41.4273 56.9866 47.9507C56.9866 54.474 51.6922 59.7684 45.1689 59.7684ZM45.1689 40.8601C41.2572 40.8601 38.0782 44.039 38.0782 47.9507C38.0782 51.8623 41.2572 55.0413 45.1689 55.0413C49.0805 55.0413 52.2595 51.8623 52.2595 47.9507C52.2595 44.039 49.0805 40.8601 45.1689 40.8601Z" fill="white"/>
</svg>
