<svg width="124" height="82" viewBox="0 0 124 82" fill="none" xmlns="http://www.w3.org/2000/svg">
<path d="M62 11C37.9091 11 17.3355 25.7207 9 46.5C17.3355 67.2793 37.9091 82 62 82C86.0909 82 106.665 67.2793 115 46.5C106.665 25.7207 86.115 11 62 11ZM62 70.1667C48.7018 70.1667 37.9091 59.564 37.9091 46.5C37.9091 33.436 48.7018 22.8333 62 22.8333C75.2982 22.8333 86.0909 33.436 86.0909 46.5C86.0909 59.564 75.2982 70.1667 62 70.1667ZM62 32.3C54.0259 32.3 47.5455 38.6663 47.5455 46.5C47.5455 54.3337 54.0259 60.7 62 60.7C69.9741 60.7 76.4545 54.3337 76.4545 46.5C76.4545 38.6663 69.9741 32.3 62 32.3Z" fill="black"/>
</svg>
