<svg width="67" height="76" viewBox="0 0 67 76" fill="none" xmlns="http://www.w3.org/2000/svg">
<mask id="mask0_436_1838" style="mask-type:luminance" maskUnits="userSpaceOnUse" x="0" y="0" width="67" height="76">
<path d="M0 0H67V76H0V0Z" fill="white"/>
</mask>
<g mask="url(#mask0_436_1838)">
<path d="M26.4226 7.17225C40.9734 5.33477 53.2661 17.5471 51.4153 32.0018C50.1527 41.8527 42.1454 49.8098 32.2285 51.0625C17.6777 52.8978 5.38728 40.6876 7.23582 26.233C8.49609 16.3799 16.5034 8.42497 26.4226 7.17225ZM66.0746 69.3541L50.1369 49.0766C55.8432 43.2066 59.0674 34.9368 58.0967 25.9563C56.6532 12.606 45.7565 1.85999 32.3099 0.515054C14.0236 -1.31343 -1.28964 13.8857 0.531746 32.0468C1.9074 45.7997 13.3132 56.7976 27.1897 57.7917C33.3575 58.2348 39.1543 56.7436 44.0347 53.8693L59.9453 74.1086C61.2734 75.7999 63.7328 76.0922 65.4253 74.7608C66.3937 73.9984 66.9005 72.8693 66.9005 71.7291C66.9005 70.8969 66.6312 70.0603 66.0746 69.3541Z" fill="black"/>
</g>
<path d="M17.9334 26.0215V45.8334C16.879 45.1205 15.8834 44.3041 14.9603 43.3865C13.8878 42.3226 12.9534 41.1599 12.1592 39.9207V26.0215C12.1592 25.9271 12.2407 25.8506 12.3447 25.8506H17.7456C17.8496 25.8506 17.9334 25.9271 17.9334 26.0215Z" fill="black"/>
<path d="M27.4611 31.615V49.2228C25.4655 49.0406 23.522 48.5706 21.6847 47.8284V31.615C21.6847 31.5205 21.7684 31.4463 21.8748 31.4463H27.2733C27.3774 31.4463 27.4611 31.5205 27.4611 31.615Z" fill="black"/>
<path d="M36.9889 22.6457V47.8194C35.4029 48.4694 33.724 48.9214 31.9818 49.1418C31.7261 49.1733 31.4682 49.2003 31.2125 49.2228V22.6457C31.2125 22.5535 31.2985 22.4793 31.4003 22.4793H36.8011C36.903 22.4793 36.9889 22.5535 36.9889 22.6457Z" fill="black"/>
<path d="M46.4941 19.1866V39.8936C45.6818 41.1531 44.7361 42.3204 43.6749 43.3729C42.7676 44.277 41.7766 45.0935 40.7154 45.8154V19.1866C40.7154 19.0922 40.8014 19.0157 40.9032 19.0157H46.304C46.4081 19.0157 46.4941 19.0922 46.4941 19.1866Z" fill="black"/>
</svg>
