<svg width="85" height="86" viewBox="0 0 85 86" fill="none" xmlns="http://www.w3.org/2000/svg">
<mask id="mask0_436_1869" style="mask-type:luminance" maskUnits="userSpaceOnUse" x="46" y="0" width="5" height="11">
<path d="M46.65 0H50.0497V10.571H46.65V0Z" fill="white"/>
</mask>
<g mask="url(#mask0_436_1869)">
<path d="M48.1418 10.3088C48.9518 10.3088 49.6114 9.65666 49.6114 8.84808V1.46513C49.6114 0.654353 48.9518 0 48.1418 0C47.3295 0 46.6721 0.654353 46.6721 1.46513V8.84808C46.6721 9.65666 47.3295 10.3088 48.1418 10.3088Z" fill="black"/>
</g>
<path d="M28.2662 13.7502C28.5517 14.1402 28.9966 14.3495 29.4503 14.3495C29.7514 14.3495 30.0568 14.2547 30.318 14.0653C30.9709 13.5872 31.1125 12.6728 30.6323 12.0207L26.241 6.06542C25.763 5.41548 24.8444 5.27227 24.1893 5.75257C23.5342 6.22846 23.3947 7.14499 23.875 7.79494L28.2662 13.7502Z" fill="black"/>
<path d="M65.6512 12.0207C65.1687 12.6728 65.3104 13.5872 65.9655 14.0653C66.2267 14.2547 66.5299 14.3495 66.8309 14.3495C67.2824 14.3495 67.7318 14.1402 68.0173 13.7502L72.4085 7.79494C72.8888 7.14499 72.7471 6.22846 72.0942 5.75257C71.4368 5.27227 70.5183 5.41548 70.0425 6.06542" fill="black"/>
<mask id="mask1_436_1869" style="mask-type:luminance" maskUnits="userSpaceOnUse" x="0" y="19" width="72" height="67">
<path d="M0 19.5953H71.0141V86H0V19.5953Z" fill="white"/>
</mask>
<g mask="url(#mask1_436_1869)">
<path d="M44.7267 28.7364C45.6098 29.7609 46.1498 31.0475 46.2074 32.4135C46.2738 33.9558 45.7271 35.3835 44.6757 36.4256C43.7462 37.5316 42.3186 38.2653 40.7427 38.3974C40.5723 38.4129 40.3996 38.4195 40.2314 38.4195C40.0189 38.4195 39.8109 38.3886 39.6028 38.3666C39.6028 38.3908 39.6139 38.4151 39.6139 38.4393C39.6825 39.9816 39.1402 41.4092 38.0911 42.4602C36.9867 43.7601 35.3754 44.4364 33.7375 44.4541C33.981 46.0712 33.5804 47.7809 32.4428 49.1271C31.6194 50.0943 30.5437 50.7134 29.395 51.0064C29.7624 51.6982 29.9948 52.4627 30.0612 53.2713C30.194 54.84 29.7071 56.3624 28.6912 57.5565C27.6797 58.7507 26.2543 59.4821 24.6785 59.6143C24.508 59.6298 24.3354 59.6364 24.1672 59.6364C22.7772 59.6364 21.4448 59.1539 20.3691 58.255L15.7986 54.4214L0.115112 68.3456L16.2767 85.9999L37.7835 65.4638C38.1288 65.1664 38.5936 65.0408 39.0318 65.1378C42.0441 65.7326 44.5806 66.1446 46.9665 65.9794C46.9909 65.9772 47.0108 65.9728 47.0373 65.9728C49.7442 65.7723 52.2519 64.8183 55.0141 62.5005L69.8787 49.0896C69.8787 49.0896 71.8663 47.2764 70.4365 45.6702C69.6707 44.8088 68.7411 44.1831 67.7141 43.857C69.2767 41.7199 69.2435 38.7103 67.4552 36.604C66.6894 35.6963 65.6845 35.053 64.5602 34.7379C65.8062 32.6471 65.658 29.9041 63.9958 27.9366C63.0772 26.8526 61.8201 26.1542 60.4235 25.9295C61.0454 24.0502 60.8816 21.7368 59.3367 20.2849C57.7763 18.8197 55.2886 20.3025 55.2886 20.3025L44.7267 28.7364Z" fill="black"/>
</g>
<mask id="mask2_436_1869" style="mask-type:luminance" maskUnits="userSpaceOnUse" x="50" y="54" width="36" height="32">
<path d="M50.0497 54.0006H85.0001V86H50.0497V54.0006Z" fill="white"/>
</mask>
<g mask="url(#mask2_436_1869)">
<path d="M56.9463 64.7016C54.6931 66.5942 52.5551 67.7288 50.417 68.3369L70.6312 85.9427L84.8849 68.3589L68.7654 54.0425L56.9463 64.7016Z" fill="black"/>
</g>
<path d="M38.713 20.1351C38.0003 21.1948 37.8078 22.7943 38.8503 23.669C38.8547 23.6712 38.8547 23.6734 38.8569 23.6778L42.5177 26.7513L48.5689 21.9219L42.9692 19.3221C40.4748 18.0354 39.1623 19.4631 38.713 20.1351Z" fill="black"/>
<path d="M20.1345 42.6585L22.879 44.9653H22.8812C22.8878 44.9697 22.8901 44.9807 22.8967 44.9873L26.0086 47.5981C27.2636 48.6446 29.1405 48.4816 30.1962 47.2412C31.2497 45.9942 31.0926 44.1236 29.8376 43.0683L23.9834 38.1419C23.979 38.1397 23.9724 38.1397 23.9679 38.1375L23.9613 38.1287C23.3593 37.6264 22.5846 37.3906 21.7989 37.4523C21.0043 37.5162 20.285 37.8864 19.7759 38.4878C18.7224 39.7348 18.8817 41.6054 20.1345 42.6585Z" fill="black"/>
<path d="M23.2397 29.8226C22.7307 30.424 22.4872 31.1908 22.5558 31.9861C22.6222 32.7771 22.9918 33.4887 23.5939 33.9932L25.8315 35.8748C25.8382 35.8814 25.8426 35.8814 25.847 35.8858L31.7344 40.8342C32.9827 41.8829 34.8685 41.7265 35.9309 40.4795C36.4753 39.9309 36.7122 39.2809 36.6812 38.5649C36.6435 37.7056 36.2297 36.8662 35.5701 36.3132L27.4362 29.4745H27.434L27.4207 29.4635C26.1635 28.4191 24.2955 28.58 23.2397 29.8226Z" fill="black"/>
<path d="M17.1532 51.729L22.2637 56.0187C22.8679 56.5254 23.6271 56.7634 24.4327 56.7017C25.2251 56.6334 25.94 56.2655 26.4469 55.6684C26.9603 55.0647 27.2038 54.3002 27.1374 53.5092C27.0688 52.7161 26.7014 52.0022 26.0994 51.4955L24.1207 49.8387C24.1184 49.8365 24.1162 49.8365 24.1118 49.8343C24.1118 49.8299 24.1118 49.8299 24.1096 49.8277L20.9468 47.1728C19.6962 46.1571 17.8437 46.3224 16.7946 47.5562C15.7411 48.801 15.8982 50.6715 17.1532 51.729Z" fill="black"/>
<path d="M29.3031 26.8338C29.312 26.8382 29.3186 26.8448 29.3252 26.8536L37.4636 33.6901C37.6539 33.851 37.8089 34.0427 37.9771 34.2255C38.0988 34.2784 38.2205 34.3269 38.3268 34.415C38.931 34.9217 39.7035 35.1575 40.4936 35.098C41.2882 35.0297 42.0075 34.6618 42.5144 34.0625C43.0633 33.5117 43.3023 32.8639 43.2735 32.1479C43.2381 31.2887 42.822 30.4448 42.1624 29.894L38.039 26.4262C38.0346 26.424 38.0324 26.424 38.0302 26.4218L32.0874 21.4227C30.8347 20.3718 28.9556 20.5304 27.8954 21.7796C26.8397 23.0266 26.999 24.8994 28.2518 25.9525L29.3031 26.8338Z" fill="black"/>
</svg>
