<svg width="129" height="129" viewBox="0 0 129 129" fill="none" xmlns="http://www.w3.org/2000/svg">
<path fill-rule="evenodd" clip-rule="evenodd" d="M52.4724 8.0625C43.6153 8.0625 36.4354 15.0145 36.4354 23.5903V34.3403H64.1916V37.3264H24.0994C15.2424 37.3264 8.0625 44.2784 8.0625 52.8541V76.1459C8.0625 84.7216 15.2424 91.6734 24.0994 91.6734H33.3514V78.5348C33.3514 69.9591 40.5314 63.0068 49.3885 63.0068H78.9948C86.4893 63.0068 92.5644 57.1244 92.5644 49.8682V23.5903C92.5644 15.0145 85.3847 8.0625 76.5276 8.0625H52.4724ZM48.7717 27.1736C51.8374 27.1736 54.3227 24.7671 54.3227 21.7986C54.3227 18.8301 51.8374 16.4236 48.7717 16.4236C45.7055 16.4236 43.2202 18.8301 43.2202 21.7986C43.2202 24.7671 45.7055 27.1736 48.7717 27.1736Z" fill="url(#paint0_linear_35_150)"/>
<path fill-rule="evenodd" clip-rule="evenodd" d="M76.5268 120.938C85.3839 120.938 92.5639 113.986 92.5639 105.41V94.6598H64.8076V91.6739H104.9C113.757 91.6739 120.937 84.7216 120.937 76.1459V52.8541C120.937 44.2784 113.757 37.3265 104.9 37.3265H95.6479V50.4652C95.6479 59.0413 88.4678 65.9932 79.6111 65.9932H50.0044C42.5099 65.9932 36.4348 71.8756 36.4348 79.1318V105.41C36.4348 113.986 43.6149 120.938 52.4716 120.938H76.5268ZM80.2279 101.827C77.1618 101.827 74.6765 104.233 74.6765 107.201C74.6765 110.17 77.1618 112.576 80.2279 112.576C83.2937 112.576 85.7789 110.17 85.7789 107.201C85.7789 104.233 83.2937 101.827 80.2279 101.827Z" fill="url(#paint1_linear_35_150)"/>
<defs>
<linearGradient id="paint0_linear_35_150" x1="50.3136" y1="8.0625" x2="50.3136" y2="91.6734" gradientUnits="userSpaceOnUse">
<stop/>
<stop offset="0.9999"/>
<stop offset="1"/>
</linearGradient>
<linearGradient id="paint1_linear_35_150" x1="78.686" y1="37.3265" x2="78.686" y2="120.938" gradientUnits="userSpaceOnUse">
<stop/>
<stop offset="0.283654"/>
<stop offset="1"/>
</linearGradient>
</defs>
</svg>
