<svg width="90" height="90" viewBox="0 0 90 90" fill="none" xmlns="http://www.w3.org/2000/svg">
<rect x="0.854492" y="0.460938" width="88.8079" height="88.8079" rx="6" fill="black"/>
<path d="M45.1435 23.2097C44.9038 23.2097 44.6806 23.3142 44.3447 23.5149C44.3447 23.5149 38.1671 27.3001 29.1977 31.0997C28.6303 31.3393 28.2616 31.8924 28.2534 32.5007V44.7986C28.2534 60.472 44.6396 66.2174 44.6396 66.2174C44.9673 66.3362 45.336 66.3362 45.6638 66.2174C45.6638 66.2174 62.05 60.472 62.05 44.7986V32.5007C62.0418 31.8924 61.6813 31.3393 61.1221 31.0997C52.1445 27.3001 45.9608 23.5149 45.9608 23.5149C45.6166 23.306 45.3749 23.2036 45.1435 23.2097ZM52.9761 39.26C53.3612 39.301 53.7278 39.4935 54.0084 39.8131C54.5533 40.4521 54.4734 41.4209 53.8241 41.974L44.3672 49.9664C43.7671 50.4702 42.8883 50.4456 42.3189 49.9029L36.4056 44.1984C35.7911 43.6044 35.7747 42.6376 36.3584 42.0211C36.9524 41.4066 37.9274 41.3882 38.5419 41.9801L43.4557 46.726L51.8414 39.6287C52.1937 39.3338 52.5931 39.2191 52.9761 39.26Z" fill="white"/>
</svg>
