<svg width="124" height="124" viewBox="0 0 124 124" fill="none" xmlns="http://www.w3.org/2000/svg">
<path d="M62.002 0C96.2409 0 124 27.7591 124 62.002C124 96.2448 96.2409 124 62.002 124C27.7591 124 0 96.2448 0 62.002C0 27.7591 27.7591 0 62.002 0ZM62.002 12.4004C34.6077 12.4004 12.4004 34.6077 12.4004 62.002C12.4004 89.3923 34.6077 111.6 62.002 111.6C89.3923 111.6 111.6 89.3923 111.6 62.002C111.6 34.6077 89.3923 12.4004 62.002 12.4004ZM62.002 18.6026C68.3112 18.6026 74.3072 19.9469 79.7202 22.3699L70.0283 32.0539C67.4705 31.3718 64.7779 30.999 62.002 30.999C44.8825 30.999 30.999 44.8825 30.999 62.002C30.999 70.5558 34.4729 78.3085 40.0762 83.9238L31.3083 92.6917L30.3447 91.6923C23.0639 83.9317 18.5986 73.4824 18.5986 62.002C18.5986 38.03 38.03 18.6026 62.002 18.6026ZM101.63 44.2877C104.049 49.6928 105.401 55.6967 105.401 62.002C105.401 73.986 100.54 84.8358 92.6917 92.6917L83.9238 83.9238C89.5271 78.3085 93.001 70.5558 93.001 62.002C93.001 59.2221 92.6362 56.5334 91.9461 53.9717L101.63 44.2877ZM88.3018 26.9263L97.0736 35.6943L73.986 58.7938C74.2556 59.8169 74.3984 60.8916 74.3984 62.002C74.3984 68.8506 68.8506 74.4024 62.002 74.4024C55.1494 74.4024 49.6016 68.8506 49.6016 62.002C49.6016 55.1494 55.1494 49.6016 62.002 49.6016C63.1084 49.6016 64.1831 49.7443 65.2062 50.018L88.3057 26.9263H88.3018Z" fill="black"/>
</svg>
