<svg width="54" height="54" viewBox="0 0 54 54" fill="none" xmlns="http://www.w3.org/2000/svg">
<path d="M27 4.5C20.79 4.5 15.75 9.54 15.75 15.75C15.75 21.96 20.79 27 27 27C33.21 27 38.25 21.96 38.25 15.75C38.25 9.54 33.21 4.5 27 4.5ZM31.8825 14.6475L25.8075 20.7225C25.5825 20.9475 25.11 21.1725 24.795 21.24L22.4775 21.555C21.6225 21.6675 21.0375 21.0825 21.1725 20.25L21.51 17.9325C21.555 17.6175 21.78 17.145 22.0275 16.92L28.1025 10.845C29.1375 9.81 30.375 9.315 31.905 10.845C33.4125 12.3975 32.9175 13.6125 31.8825 14.6475Z" fill="#FFDE59"/>
<path d="M27.0004 31.5C15.7279 31.5 6.54785 39.06 6.54785 48.375C6.54785 49.005 7.04285 49.5 7.67285 49.5H46.3279C46.9579 49.5 47.4529 49.005 47.4529 48.375C47.4529 39.06 38.2729 31.5 27.0004 31.5Z" fill="#FFDE59"/>
</svg>
