<svg width="54" height="54" viewBox="0 0 54 54" fill="none" xmlns="http://www.w3.org/2000/svg">
<path d="M27.0004 33.75C15.7279 33.75 6.54785 41.31 6.54785 50.625C6.54785 51.255 7.04285 51.75 7.67285 51.75H46.3279C46.9579 51.75 47.4529 51.255 47.4529 50.625C47.4529 41.31 38.2729 33.75 27.0004 33.75Z" fill="#26FF00"/>
<path d="M35.3475 8.235C33.3225 5.94 30.3075 4.5 27 4.5C23.85 4.5 20.97 5.7825 18.9225 7.8975C16.965 9.9225 15.75 12.7125 15.75 15.75C15.75 17.865 16.335 19.845 17.3925 21.5325C17.955 22.5 18.675 23.3775 19.53 24.0975C21.4875 25.8975 24.0975 27 27 27C31.1175 27 34.6725 24.795 36.63 21.5325C37.215 20.565 37.665 19.485 37.9125 18.36C38.1375 17.5275 38.25 16.65 38.25 15.75C38.25 12.87 37.1475 10.2375 35.3475 8.235ZM31.2075 17.82H29.115V20.0025C29.115 21.1725 28.17 22.1175 27 22.1175C25.83 22.1175 24.885 21.1725 24.885 20.0025V17.82H22.7925C21.6225 17.82 20.6775 16.875 20.6775 15.705C20.6775 14.535 21.6225 13.59 22.7925 13.59H24.885V11.5875C24.885 10.4175 25.83 9.4725 27 9.4725C28.17 9.4725 29.115 10.4175 29.115 11.5875V13.59H31.2075C32.3775 13.59 33.3225 14.535 33.3225 15.705C33.3225 16.875 32.3775 17.82 31.2075 17.82Z" fill="#26FF00"/>
</svg>
