<svg width="54" height="54" viewBox="0 0 54 54" fill="none" xmlns="http://www.w3.org/2000/svg">
<path d="M27.0004 31.5C15.7279 31.5 6.54785 39.06 6.54785 48.375C6.54785 49.005 7.04285 49.5 7.67285 49.5H46.3279C46.9579 49.5 47.4529 49.005 47.4529 48.375C47.4529 39.06 38.2729 31.5 27.0004 31.5Z" fill="#FF0000"/>
<path d="M37.9128 13.05C37.6428 11.9475 37.1928 10.8675 36.5628 9.87751C36.1353 9.15751 35.5728 8.43751 34.9653 7.80751C32.9403 5.78251 30.3078 4.68001 27.6078 4.54501C24.5478 4.34251 21.4203 5.46751 19.0578 7.80751C16.8303 10.0125 15.7053 12.96 15.7503 15.93C15.7728 18.7425 16.8978 21.555 19.0353 23.715C20.5203 25.2 22.3428 26.19 24.3003 26.64C25.3578 26.91 26.4828 27.045 27.6078 26.955C30.2853 26.8425 32.8953 25.785 34.9428 23.715C37.8453 20.8125 38.8353 16.74 37.9128 13.05ZM31.5003 20.25C30.6903 21.06 29.3403 21.06 28.5303 20.25L26.9778 18.6975L25.4928 20.1825C24.6828 20.9925 23.3328 20.9925 22.5228 20.1825C21.6903 19.35 21.6903 18.0225 22.5003 17.2125L23.9853 15.7275L22.5453 14.3325C21.7353 13.5 21.7353 12.1725 22.5453 11.3175C23.3778 10.5075 24.7053 10.5075 25.5603 11.3175L26.9553 12.7575L28.4628 11.25C29.2728 10.44 30.6003 10.44 31.4328 11.25C32.2428 12.06 32.2428 13.41 31.4328 14.22L29.9478 15.705L31.5003 17.28C32.3103 18.09 32.3103 19.44 31.5003 20.25Z" fill="#FF0000"/>
</svg>
