<svg width="1025" height="1862" viewBox="0 0 1025 1862" fill="none" xmlns="http://www.w3.org/2000/svg">
<rect x="-35" width="1060" height="1862" rx="6" fill="#FF6D4D"/>
<rect y="522" width="1025" height="1199" rx="6" fill="black"/>
<path d="M-32.9989 515.432H-26.996V527.443H-32.9989V515.432ZM-20.993 515.432H-14.9901V527.443H-20.993V515.432ZM-8.98719 515.432H-2.98426V527.443H-8.98719V515.432ZM3.01867 515.432H9.0216V527.443H3.01867V515.432ZM15.0245 515.432H21.0275V527.443H15.0245V515.432ZM27.0304 515.432H33.0333V527.443H27.0304V515.432ZM39.0362 515.432H45.0392V527.443H39.0362V515.432ZM51.0421 515.432H57.045V527.443H51.0421V515.432ZM63.048 515.432H69.0509V527.443H63.048V515.432ZM75.0538 515.432H81.0567V527.443H75.0538V515.432ZM87.0597 515.432H93.0626V527.443H87.0597V515.432ZM99.0655 515.432H105.068V527.443H99.0655V515.432ZM111.071 515.432H117.074V527.443H111.071V515.432ZM123.077 515.432H129.08V527.443H123.077V515.432ZM135.083 515.432H141.086V527.443H135.083V515.432ZM147.089 515.432H153.092V527.443H147.089V515.432ZM159.095 515.432H165.098V527.443H159.095V515.432ZM171.101 515.432H177.104V527.443H171.101V515.432ZM183.107 515.432H189.109V527.443H183.107V515.432ZM195.112 515.432H201.115V527.443H195.112V515.432ZM207.118 515.432H213.121V527.443H207.118V515.432ZM219.124 515.432H225.127V527.443H219.124V515.432ZM231.13 515.432H237.133V527.443H231.13V515.432ZM243.136 515.432H249.139V527.443H243.136V515.432ZM255.142 515.432H261.145V527.443H255.142V515.432ZM267.148 515.432H273.15V527.443H267.148V515.432ZM279.153 515.432H285.156V527.443H279.153V515.432ZM291.159 515.432H297.162V527.443H291.159V515.432ZM303.165 515.432H309.168V527.443H303.165V515.432ZM315.171 515.432H321.174V527.443H315.171V515.432ZM327.177 515.432H333.18V527.443H327.177V515.432ZM339.183 515.432H345.186V527.443H339.183V515.432ZM351.189 515.432H357.191V527.443H351.189V515.432ZM363.194 515.432H369.197V527.443H363.194V515.432ZM375.2 515.432H381.203V527.443H375.2V515.432ZM387.206 515.432H393.209V527.443H387.206V515.432ZM399.212 515.432H405.215V527.443H399.212V515.432ZM411.218 515.432H417.221V527.443H411.218V515.432ZM423.224 515.432H429.227V527.443H423.224V515.432ZM435.23 515.432H441.232V527.443H435.23V515.432ZM447.235 515.432H453.238V527.443H447.235V515.432ZM459.241 515.432H465.244V527.443H459.241V515.432ZM471.247 515.432H477.25V527.443H471.247V515.432ZM483.253 515.432H489.256V527.443H483.253V515.432ZM495.259 515.432H501.262V527.443H495.259V515.432ZM507.265 515.432H513.268V527.443H507.265V515.432ZM519.271 515.432H525.273V527.443H519.271V515.432ZM531.276 515.432H537.279V527.443H531.276V515.432ZM543.282 515.432H549.285V527.443H543.282V515.432ZM555.288 515.432H561.291V527.443H555.288V515.432ZM567.294 515.432H573.297V527.443H567.294V515.432ZM579.3 515.432H585.303V527.443H579.3V515.432ZM591.306 515.432H597.309V527.443H591.306V515.432ZM603.312 515.432H609.314V527.443H603.312V515.432ZM615.317 515.432H621.32V527.443H615.317V515.432ZM627.323 515.432H633.326V527.443H627.323V515.432ZM639.329 515.432H645.332V527.443H639.329V515.432ZM651.335 515.432H657.338V527.443H651.335V515.432ZM663.341 515.432H669.344V527.443H663.341V515.432ZM675.347 515.432H681.35V527.443H675.347V515.432ZM687.353 515.432H693.355V527.443H687.353V515.432ZM699.358 515.432H705.361V527.443H699.358V515.432ZM711.364 515.432H717.367V527.443H711.364V515.432ZM723.37 515.432H729.373V527.443H723.37V515.432ZM735.376 515.432H741.379V527.443H735.376V515.432ZM747.382 515.432H753.385V527.443H747.382V515.432ZM759.388 515.432H765.391V527.443H759.388V515.432ZM771.394 515.432H777.396V527.443H771.394V515.432ZM783.399 515.432H789.402V527.443H783.399V515.432ZM795.405 515.432H801.408V527.443H795.405V515.432ZM807.411 515.432H813.414V527.443H807.411V515.432ZM819.417 515.432H825.42V527.443H819.417V515.432ZM831.423 515.432H837.426V527.443H831.423V515.432ZM843.429 515.432H849.432V527.443H843.429V515.432ZM855.435 515.432H861.438V527.443H855.435V515.432ZM867.44 515.432H873.443V527.443H867.44V515.432ZM879.446 515.432H885.449V527.443H879.446V515.432ZM891.452 515.432H897.455V527.443H891.452V515.432ZM903.458 515.432H909.461V527.443H903.458V515.432ZM915.464 515.432H921.467V527.443H915.464V515.432ZM927.47 515.432H933.473V527.443H927.47V515.432ZM939.476 515.432H945.478V527.443H939.476V515.432ZM951.481 515.432H957.484V527.443H951.481V515.432ZM963.487 515.432H969.49V527.443H963.487V515.432ZM975.493 515.432H981.496V527.443H975.493V515.432ZM987.499 515.432H993.502V527.443H987.499V515.432ZM999.505 515.432H1005.51V527.443H999.505V515.432ZM1011.51 515.432H1017.51V527.443H1011.51V515.432ZM1023.52 515.432H1029.52V527.443H1023.52V515.432ZM1035.52 515.432H1041.53V527.443H1035.52V515.432ZM1047.53 515.432H1053.53V527.443H1047.53V515.432ZM1059.53 515.432H1065.54V527.443H1059.53V515.432ZM1071.54 515.432H1079.51V525.476H1067.5V521.438H1073.51V527.443H1071.54V515.432ZM1079.51 531.482V537.488H1067.5V531.482H1079.51ZM1079.51 543.493V549.499H1067.5V543.493H1079.51ZM1079.51 555.505V561.51H1067.5V555.505H1079.51ZM1079.51 567.516V573.522H1067.5V567.516H1079.51ZM1079.51 579.527V585.533H1067.5V579.527H1079.51ZM1079.51 591.539V597.544H1067.5V591.539H1079.51ZM1079.51 603.55V609.555H1067.5V603.55H1079.51ZM1079.51 615.561V621.567H1067.5V615.561H1079.51ZM1079.51 627.572V633.578H1067.5V627.572H1079.51ZM1079.51 639.584V645.589H1067.5V639.584H1079.51ZM1079.51 651.595V657.601H1067.5V651.595H1079.51ZM1079.51 663.606V669.612H1067.5V663.606H1079.51ZM1079.51 675.617V681.623H1067.5V675.617H1079.51ZM1079.51 687.629V693.634H1067.5V687.629H1079.51ZM1079.51 699.64V705.646H1067.5V699.64H1079.51ZM1079.51 711.651V717.657H1067.5V711.651H1079.51ZM1079.51 723.663V729.668H1067.5V723.663H1079.51ZM1079.51 735.674V741.68H1067.5V735.674H1079.51ZM1079.51 747.685V753.691H1067.5V747.685H1079.51ZM1079.51 759.696V765.702H1067.5V759.696H1079.51ZM1079.51 771.708V777.713H1067.5V771.708H1079.51ZM1079.51 783.719V789.725H1067.5V783.719H1079.51ZM1079.51 795.73V801.736H1067.5V795.73H1079.51ZM1079.51 807.742V813.747H1067.5V807.742H1079.51ZM1079.51 819.753V825.759H1067.5V819.753H1079.51ZM1079.51 831.764V837.77H1067.5V831.764H1079.51ZM1079.51 843.775V849.781H1067.5V843.775H1079.51ZM1079.51 855.787V861.792H1067.5V855.787H1079.51ZM1079.51 867.798V873.804H1067.5V867.798H1079.51ZM1079.51 879.809V885.815H1067.5V879.809H1079.51ZM1079.51 891.821V897.826H1067.5V891.821H1079.51ZM1079.51 903.832V909.838H1067.5V903.832H1079.51ZM1079.51 915.843V921.849H1067.5V915.843H1079.51ZM1079.51 927.854V933.86H1067.5V927.854H1079.51ZM1079.51 939.866V945.871H1067.5V939.866H1079.51ZM1079.51 951.877V957.883H1067.5V951.877H1079.51ZM1079.51 963.888V969.894H1067.5V963.888H1079.51ZM1079.51 975.9V981.905H1067.5V975.9H1079.51ZM1079.51 987.911V993.917H1067.5V987.911H1079.51ZM1079.51 999.922V1005.93H1067.5V999.922H1079.51ZM1079.51 1011.93V1017.94H1067.5V1011.93H1079.51ZM1079.51 1023.94V1029.95H1067.5V1023.94H1079.51ZM1079.51 1035.96V1041.96H1067.5V1035.96H1079.51ZM1079.51 1047.97V1053.97H1067.5V1047.97H1079.51ZM1079.51 1059.98V1065.98H1067.5V1059.98H1079.51ZM1079.51 1071.99V1078H1067.5V1071.99H1079.51ZM1079.51 1084V1090.01H1067.5V1084H1079.51ZM1079.51 1096.01V1102.02H1067.5V1096.01H1079.51ZM1079.51 1108.02V1114.03H1067.5V1108.02H1079.51ZM1079.51 1120.03V1126.04H1067.5V1120.03H1079.51ZM1079.51 1132.05V1138.05H1067.5V1132.05H1079.51ZM1079.51 1144.06V1150.06H1067.5V1144.06H1079.51ZM1079.51 1156.07V1162.07H1067.5V1156.07H1079.51ZM1079.51 1168.08V1174.09H1067.5V1168.08H1079.51ZM1079.51 1180.09V1186.1H1067.5V1180.09H1079.51ZM1079.51 1192.1V1198.11H1067.5V1192.1H1079.51ZM1079.51 1204.11V1210.12H1067.5V1204.11H1079.51ZM1079.51 1216.13V1222.13H1067.5V1216.13H1079.51ZM1079.51 1228.14V1234.14H1067.5V1228.14H1079.51ZM1079.51 1240.15V1246.15H1067.5V1240.15H1079.51ZM1079.51 1252.16V1258.16H1067.5V1252.16H1079.51ZM1079.51 1264.17V1270.18H1067.5V1264.17H1079.51ZM1079.51 1276.18V1282.19H1067.5V1276.18H1079.51ZM1079.51 1288.19V1294.2H1067.5V1288.19H1079.51ZM1079.51 1300.2V1306.21H1067.5V1300.2H1079.51ZM1079.51 1312.22V1318.22H1067.5V1312.22H1079.51ZM1079.51 1324.23V1330.23H1067.5V1324.23H1079.51ZM1079.51 1336.24V1342.24H1067.5V1336.24H1079.51ZM1079.51 1348.25V1354.26H1067.5V1348.25H1079.51ZM1079.51 1360.26V1366.27H1067.5V1360.26H1079.51ZM1079.51 1372.27V1378.28H1067.5V1372.27H1079.51ZM1079.51 1384.28V1390.29H1067.5V1384.28H1079.51ZM1079.51 1396.29V1402.3H1067.5V1396.29H1079.51ZM1079.51 1408.31V1414.31H1067.5V1408.31H1079.51ZM1079.51 1420.32V1426.32H1067.5V1420.32H1079.51ZM1079.51 1432.33V1438.33H1067.5V1432.33H1079.51ZM1079.51 1444.34V1450.35H1067.5V1444.34H1079.51ZM1079.51 1456.35V1462.36H1067.5V1456.35H1079.51ZM1079.51 1468.36V1474.37H1067.5V1468.36H1079.51ZM1079.51 1480.37V1486.38H1067.5V1480.37H1079.51ZM1079.51 1492.38V1498.39H1067.5V1492.38H1079.51ZM1079.51 1504.4V1510.4H1067.5V1504.4H1079.51ZM1079.51 1516.41V1522.41H1067.5V1516.41H1079.51ZM1079.51 1528.42V1534.42H1067.5V1528.42H1079.51ZM1079.51 1540.43V1546.44H1067.5V1540.43H1079.51ZM1079.51 1552.44V1558.45H1067.5V1552.44H1079.51ZM1079.51 1564.45V1570.46H1067.5V1564.45H1079.51ZM1079.51 1576.46V1582.47H1067.5V1576.46H1079.51ZM1079.51 1588.48V1594.48H1067.5V1588.48H1079.51ZM1079.51 1600.49V1606.49H1067.5V1600.49H1079.51ZM1079.51 1612.5V1618.5H1067.5V1612.5H1079.51ZM1079.51 1624.51V1630.51H1067.5V1624.51H1079.51ZM1079.51 1636.52V1642.53H1067.5V1636.52H1079.51ZM1079.51 1648.53V1654.54H1067.5V1648.53H1079.51ZM1079.51 1660.54V1666.55H1067.5V1660.54H1079.51ZM1079.51 1672.55V1678.56H1067.5V1672.55H1079.51ZM1079.51 1684.57V1690.57H1067.5V1684.57H1079.51ZM1079.51 1696.58V1702.58H1067.5V1696.58H1079.51ZM1079.51 1708.59V1714.59H1067.5V1708.59H1079.51ZM1079.51 1720.6V1727.15H1068.05V1715.14H1073.51V1721.15H1067.5V1720.6H1079.51ZM1062.05 1727.15H1056.04V1715.14H1062.05V1727.15ZM1050.04 1727.15H1044.04V1715.14H1050.04V1727.15ZM1038.03 1727.15H1032.03V1715.14H1038.03V1727.15ZM1026.03 1727.15H1020.03V1715.14H1026.03V1727.15ZM1014.02 1727.15H1008.02V1715.14H1014.02V1727.15ZM1002.02 1727.15H996.014V1715.14H1002.02V1727.15ZM990.011 1727.15H984.008V1715.14H990.011V1727.15ZM978.005 1727.15H972.002V1715.14H978.005V1727.15ZM966 1727.15H959.997V1715.14H966V1727.15ZM953.994 1727.15H947.991V1715.14H953.994V1727.15ZM941.988 1727.15H935.985V1715.14H941.988V1727.15ZM929.982 1727.15H923.979V1715.14H929.982V1727.15ZM917.976 1727.15H911.973V1715.14H917.976V1727.15ZM905.97 1727.15H899.967V1715.14H905.97V1727.15ZM893.964 1727.15H887.961V1715.14H893.964V1727.15ZM881.958 1727.15H875.956V1715.14H881.958V1727.15ZM869.953 1727.15H863.95V1715.14H869.953V1727.15ZM857.947 1727.15H851.944V1715.14H857.947V1727.15ZM845.941 1727.15H839.938V1715.14H845.941V1727.15ZM833.935 1727.15H827.932V1715.14H833.935V1727.15ZM821.929 1727.15H815.926V1715.14H821.929V1727.15ZM809.923 1727.15H803.92V1715.14H809.923V1727.15ZM797.917 1727.15H791.915V1715.14H797.917V1727.15ZM785.912 1727.15H779.909V1715.14H785.912V1727.15ZM773.906 1727.15H767.903V1715.14H773.906V1727.15ZM761.9 1727.15H755.897V1715.14H761.9V1727.15ZM749.894 1727.15H743.891V1715.14H749.894V1727.15ZM737.888 1727.15H731.885V1715.14H737.888V1727.15ZM725.882 1727.15H719.879V1715.14H725.882V1727.15ZM713.877 1727.15H707.874V1715.14H713.877V1727.15ZM701.871 1727.15H695.868V1715.14H701.871V1727.15ZM689.865 1727.15H683.862V1715.14H689.865V1727.15ZM677.859 1727.15H671.856V1715.14H677.859V1727.15ZM665.853 1727.15H659.85V1715.14H665.853V1727.15ZM653.847 1727.15H647.844V1715.14H653.847V1727.15ZM641.841 1727.15H635.838V1715.14H641.841V1727.15ZM629.836 1727.15H623.833V1715.14H629.836V1727.15ZM617.83 1727.15H611.827V1715.14H617.83V1727.15ZM605.824 1727.15H599.821V1715.14H605.824V1727.15ZM593.818 1727.15H587.815V1715.14H593.818V1727.15ZM581.812 1727.15H575.809V1715.14H581.812V1727.15ZM569.806 1727.15H563.803V1715.14H569.806V1727.15ZM557.8 1727.15H551.797V1715.14H557.8V1727.15ZM545.794 1727.15H539.792V1715.14H545.794V1727.15ZM533.789 1727.15H527.786V1715.14H533.789V1727.15ZM521.783 1727.15H515.78V1715.14H521.783V1727.15ZM509.777 1727.15H503.774V1715.14H509.777V1727.15ZM497.771 1727.15H491.768V1715.14H497.771V1727.15ZM485.765 1727.15H479.762V1715.14H485.765V1727.15ZM473.759 1727.15H467.756V1715.14H473.759V1727.15ZM461.753 1727.15H455.751V1715.14H461.753V1727.15ZM449.748 1727.15H443.745V1715.14H449.748V1727.15ZM437.742 1727.15H431.739V1715.14H437.742V1727.15ZM425.736 1727.15H419.733V1715.14H425.736V1727.15ZM413.73 1727.15H407.727V1715.14H413.73V1727.15ZM401.724 1727.15H395.721V1715.14H401.724V1727.15ZM389.718 1727.15H383.715V1715.14H389.718V1727.15ZM377.712 1727.15H371.71V1715.14H377.712V1727.15ZM365.707 1727.15H359.704V1715.14H365.707V1727.15ZM353.701 1727.15H347.698V1715.14H353.701V1727.15ZM341.695 1727.15H335.692V1715.14H341.695V1727.15ZM329.689 1727.15H323.686V1715.14H329.689V1727.15ZM317.683 1727.15H311.68V1715.14H317.683V1727.15ZM305.677 1727.15H299.674V1715.14H305.677V1727.15ZM293.671 1727.15H287.669V1715.14H293.671V1727.15ZM281.666 1727.15H275.663V1715.14H281.666V1727.15ZM269.66 1727.15H263.657V1715.14H269.66V1727.15ZM257.654 1727.15H251.651V1715.14H257.654V1727.15ZM245.648 1727.15H239.645V1715.14H245.648V1727.15ZM233.642 1727.15H227.639V1715.14H233.642V1727.15ZM221.636 1727.15H215.633V1715.14H221.636V1727.15ZM209.63 1727.15H203.628V1715.14H209.63V1727.15ZM197.625 1727.15H191.622V1715.14H197.625V1727.15ZM185.619 1727.15H179.616V1715.14H185.619V1727.15ZM173.613 1727.15H167.61V1715.14H173.613V1727.15ZM161.607 1727.15H155.604V1715.14H161.607V1727.15ZM149.601 1727.15H143.598V1715.14H149.601V1727.15ZM137.595 1727.15H131.592V1715.14H137.595V1727.15ZM125.589 1727.15H119.587V1715.14H125.589V1727.15ZM113.584 1727.15H107.581V1715.14H113.584V1727.15ZM101.578 1727.15H95.5748V1715.14H101.578V1727.15ZM89.5719 1727.15H83.569V1715.14H89.5719V1727.15ZM77.566 1727.15H71.5631V1715.14H77.566V1727.15ZM65.5602 1727.15H59.5573V1715.14H65.5602V1727.15ZM53.5543 1727.15H47.5514V1715.14H53.5543V1727.15ZM41.5485 1727.15H35.5455V1715.14H41.5485V1727.15ZM29.5426 1727.15H23.5397V1715.14H29.5426V1727.15ZM17.5368 1727.15H11.5338V1715.14H17.5368V1727.15ZM5.5309 1727.15H-0.472034V1715.14H5.5309V1727.15ZM-6.47496 1727.15H-12.4779V1715.14H-6.47496V1727.15ZM-18.4808 1727.15H-24.4837V1715.14H-18.4808V1727.15ZM-30.4867 1727.15H-36.4896V1715.14H-30.4867V1727.15ZM-42.4925 1727.15H-51.0077V1717.65H-39.0018V1721.15H-45.0048V1715.14H-42.4925V1727.15ZM-51.0077 1711.65V1705.64H-39.0018V1711.65H-51.0077ZM-51.0077 1699.64V1693.63H-39.0018V1699.64H-51.0077ZM-51.0077 1687.63V1681.62H-39.0018V1687.63H-51.0077ZM-51.0077 1675.61V1669.61H-39.0018V1675.61H-51.0077ZM-51.0077 1663.6V1657.6H-39.0018V1663.6H-51.0077ZM-51.0077 1651.59V1645.59H-39.0018V1651.59H-51.0077ZM-51.0077 1639.58V1633.57H-39.0018V1639.58H-51.0077ZM-51.0077 1627.57V1621.56H-39.0018V1627.57H-51.0077ZM-51.0077 1615.56V1609.55H-39.0018V1615.56H-51.0077ZM-51.0077 1603.55V1597.54H-39.0018V1603.55H-51.0077ZM-51.0077 1591.54V1585.53H-39.0018V1591.54H-51.0077ZM-51.0077 1579.52V1573.52H-39.0018V1579.52H-51.0077ZM-51.0077 1567.51V1561.51H-39.0018V1567.51H-51.0077ZM-51.0077 1555.5V1549.5H-39.0018V1555.5H-51.0077ZM-51.0077 1543.49V1537.48H-39.0018V1543.49H-51.0077ZM-51.0077 1531.48V1525.47H-39.0018V1531.48H-51.0077ZM-51.0077 1519.47V1513.46H-39.0018V1519.47H-51.0077ZM-51.0077 1507.46V1501.45H-39.0018V1507.46H-51.0077ZM-51.0077 1495.44V1489.44H-39.0018V1495.44H-51.0077ZM-51.0077 1483.43V1477.43H-39.0018V1483.43H-51.0077ZM-51.0077 1471.42V1465.42H-39.0018V1471.42H-51.0077ZM-51.0077 1459.41V1453.41H-39.0018V1459.41H-51.0077ZM-51.0077 1447.4V1441.39H-39.0018V1447.4H-51.0077ZM-51.0077 1435.39V1429.38H-39.0018V1435.39H-51.0077ZM-51.0077 1423.38V1417.37H-39.0018V1423.38H-51.0077ZM-51.0077 1411.37V1405.36H-39.0018V1411.37H-51.0077ZM-51.0077 1399.35V1393.35H-39.0018V1399.35H-51.0077ZM-51.0077 1387.34V1381.34H-39.0018V1387.34H-51.0077ZM-51.0077 1375.33V1369.33H-39.0018V1375.33H-51.0077ZM-51.0077 1363.32V1357.31H-39.0018V1363.32H-51.0077ZM-51.0077 1351.31V1345.3H-39.0018V1351.31H-51.0077ZM-51.0077 1339.3V1333.29H-39.0018V1339.3H-51.0077ZM-51.0077 1327.29V1321.28H-39.0018V1327.29H-51.0077ZM-51.0077 1315.28V1309.27H-39.0018V1315.28H-51.0077ZM-51.0077 1303.26V1297.26H-39.0018V1303.26H-51.0077ZM-51.0077 1291.25V1285.25H-39.0018V1291.25H-51.0077ZM-51.0077 1279.24V1273.24H-39.0018V1279.24H-51.0077ZM-51.0077 1267.23V1261.22H-39.0018V1267.23H-51.0077ZM-51.0077 1255.22V1249.21H-39.0018V1255.22H-51.0077ZM-51.0077 1243.21V1237.2H-39.0018V1243.21H-51.0077ZM-51.0077 1231.2V1225.19H-39.0018V1231.2H-51.0077ZM-51.0077 1219.19V1213.18H-39.0018V1219.19H-51.0077ZM-51.0077 1207.17V1201.17H-39.0018V1207.17H-51.0077ZM-51.0077 1195.16V1189.16H-39.0018V1195.16H-51.0077ZM-51.0077 1183.15V1177.15H-39.0018V1183.15H-51.0077ZM-51.0077 1171.14V1165.13H-39.0018V1171.14H-51.0077ZM-51.0077 1159.13V1153.12H-39.0018V1159.13H-51.0077ZM-51.0077 1147.12V1141.11H-39.0018V1147.12H-51.0077ZM-51.0077 1135.11V1129.1H-39.0018V1135.11H-51.0077ZM-51.0077 1123.09V1117.09H-39.0018V1123.09H-51.0077ZM-51.0077 1111.08V1105.08H-39.0018V1111.08H-51.0077ZM-51.0077 1099.07V1093.07H-39.0018V1099.07H-51.0077ZM-51.0077 1087.06V1081.06H-39.0018V1087.06H-51.0077ZM-51.0077 1075.05V1069.04H-39.0018V1075.05H-51.0077ZM-51.0077 1063.04V1057.03H-39.0018V1063.04H-51.0077ZM-51.0077 1051.03V1045.02H-39.0018V1051.03H-51.0077ZM-51.0077 1039.02V1033.01H-39.0018V1039.02H-51.0077ZM-51.0077 1027V1021H-39.0018V1027H-51.0077ZM-51.0077 1014.99V1008.99H-39.0018V1014.99H-51.0077ZM-51.0077 1002.98V996.976H-39.0018V1002.98H-51.0077ZM-51.0077 990.971V984.965H-39.0018V990.971H-51.0077ZM-51.0077 978.959V972.954H-39.0018V978.959H-51.0077ZM-51.0077 966.948V960.943H-39.0018V966.948H-51.0077ZM-51.0077 954.937V948.931H-39.0018V954.937H-51.0077ZM-51.0077 942.926V936.92H-39.0018V942.926H-51.0077ZM-51.0077 930.914V924.909H-39.0018V930.914H-51.0077ZM-51.0077 918.903V912.897H-39.0018V918.903H-51.0077ZM-51.0077 906.892V900.886H-39.0018V906.892H-51.0077ZM-51.0077 894.88V888.875H-39.0018V894.88H-51.0077ZM-51.0077 882.869V876.864H-39.0018V882.869H-51.0077ZM-51.0077 870.858V864.852H-39.0018V870.858H-51.0077ZM-51.0077 858.847V852.841H-39.0018V858.847H-51.0077ZM-51.0077 846.835V840.83H-39.0018V846.835H-51.0077ZM-51.0077 834.824V828.818H-39.0018V834.824H-51.0077ZM-51.0077 822.813V816.807H-39.0018V822.813H-51.0077ZM-51.0077 810.801V804.796H-39.0018V810.801H-51.0077ZM-51.0077 798.79V792.785H-39.0018V798.79H-51.0077ZM-51.0077 786.779V780.773H-39.0018V786.779H-51.0077ZM-51.0077 774.768V768.762H-39.0018V774.768H-51.0077ZM-51.0077 762.756V756.751H-39.0018V762.756H-51.0077ZM-51.0077 750.745V744.739H-39.0018V750.745H-51.0077ZM-51.0077 738.734V732.728H-39.0018V738.734H-51.0077ZM-51.0077 726.723V720.717H-39.0018V726.723H-51.0077ZM-51.0077 714.711V708.706H-39.0018V714.711H-51.0077ZM-51.0077 702.7V696.694H-39.0018V702.7H-51.0077ZM-51.0077 690.689V684.683H-39.0018V690.689H-51.0077ZM-51.0077 678.677V672.672H-39.0018V678.677H-51.0077ZM-51.0077 666.666V660.66H-39.0018V666.666H-51.0077ZM-51.0077 654.655V648.649H-39.0018V654.655H-51.0077ZM-51.0077 642.644V636.638H-39.0018V642.644H-51.0077ZM-51.0077 630.632V624.627H-39.0018V630.632H-51.0077ZM-51.0077 618.621V612.615H-39.0018V618.621H-51.0077ZM-51.0077 606.61V600.604H-39.0018V606.61H-51.0077ZM-51.0077 594.598V588.593H-39.0018V594.598H-51.0077ZM-51.0077 582.587V576.581H-39.0018V582.587H-51.0077ZM-51.0077 570.576V564.57H-39.0018V570.576H-51.0077ZM-51.0077 558.565V552.559H-39.0018V558.565H-51.0077ZM-51.0077 546.553V540.548H-39.0018V546.553H-51.0077ZM-51.0077 534.542V528.536H-39.0018V534.542H-51.0077ZM-51.0077 522.531V515.432H-39.0018V527.443H-45.0048V521.438H-39.0018V522.531L-51.0077 522.531Z" fill="#FF6D4D"/>
</svg>
