<svg width="71" height="67" viewBox="0 0 71 67" fill="none" xmlns="http://www.w3.org/2000/svg">
<path d="M44.6065 44.6571C45.2771 44.704 45.9611 45.0192 46.6794 45.7434L63.8786 63.0878H56.8752L44.6065 44.6571ZM28.5648 31.0266C29.1921 30.9986 29.9248 31.2108 30.6556 31.5964C33.5799 33.1342 34.9174 34.1834 35.578 35.4765C36.3512 36.9763 36.4916 39.4126 36.4916 43.7117C36.4817 43.9365 36.506 44.1442 36.5429 44.3365L30.6601 47.7462C28.7007 48.8803 27.392 49.3742 25.2597 49.4772C26.0194 43.6828 26.3614 39.2193 26.6467 33.4908C26.7277 31.7942 27.5099 31.0754 28.5648 31.0266ZM39.6193 6.75004L42.774 6.8584C42.7308 6.92974 42.684 6.99927 42.6417 7.08505C41.4797 9.63867 39.919 11.0256 38.1513 11.9241C38.9253 10.5886 39.4546 8.9181 39.6193 6.75004ZM55.8384 2.48438C55.3883 2.48438 55.0283 2.74805 55.0283 3.07763V3.2799L35.3674 3.79189C33.1497 3.84878 33.2388 6.54417 35.3674 6.6137L37.3502 6.67961C36.8066 9.42106 35.5276 10.8324 34.0128 11.9792C33.1452 12.6375 31.2802 13.6163 30.0049 13.6443L23.916 13.7671C22.5839 13.7951 21.5578 14.9473 21.7306 16.2738C22.871 24.8656 22.6451 35.6119 20.8639 49.0997C20.8396 49.2361 20.8396 49.3679 20.8396 49.4998H19.6776C16.0062 49.4998 15.0738 50.2474 12.2188 52.9753L0.582826 64.1036C-0.184924 64.8368 0.085994 66.7981 1.45498 66.7981H69.6165C70.6425 66.7981 71.1394 65.1429 70.1133 64.1036L48.5119 42.3193C47.4003 41.2005 46.0826 40.73 44.6443 40.777C43.4634 40.814 42.1971 41.214 40.8938 41.8633C40.8758 38.4924 40.7309 35.8485 39.5014 33.4502C38.217 30.958 35.7139 29.236 32.1461 27.5059L31.8554 17.8865C38.4231 17.1722 43.8613 13.2081 45.539 8.68784C45.8018 7.99164 45.7307 7.39477 45.5066 6.94328L55.0283 7.25752V7.47423C55.0283 7.7984 55.3883 8.06207 55.8384 8.06207C56.2884 8.06207 56.6493 7.7984 56.6493 7.47423V3.07763C56.6493 2.74805 56.2884 2.48438 55.8384 2.48438Z" fill="black"/>
<circle cx="29.8354" cy="8.9209" r="8" fill="black"/>
</svg>
