<svg width="72" height="72" viewBox="0 0 72 72" fill="none" xmlns="http://www.w3.org/2000/svg">
<path d="M49.2472 58.008C39.4942 67.7656 23.6296 67.7718 13.8685 58.028C4.19136 48.3675 4.08261 32.6028 13.6318 22.8147C21.4247 14.8261 33.2533 13.1843 42.7073 17.8858C43.086 18.0744 43.5427 18.0015 43.8423 17.7023L46.8237 14.719C47.2838 14.2581 47.179 13.4828 46.6108 13.1655C42.056 10.6259 36.9062 9.27399 31.5479 9.27399C23.2641 9.27399 15.4755 12.5014 9.61842 18.3615C3.76046 24.2217 0.534546 32.0138 0.534546 40.3014C0.534546 48.5504 3.73072 56.3082 9.5365 62.1594C15.2233 67.8897 22.9451 71.1898 31.0156 71.3243C39.6616 71.4684 47.8032 68.1004 53.8219 61.8915C59.4335 56.1025 62.5721 48.323 62.5613 40.2587C62.5545 34.9129 61.2032 29.7755 58.6704 25.2302C58.3539 24.6615 57.5789 24.5584 57.1188 25.0187L54.1374 28.0015C53.8372 28.3012 53.7655 28.7587 53.9546 29.1386C58.609 38.5086 57.0408 50.2109 49.2472 58.008Z" fill="black"/>
<path d="M18.362 27.1096C11.1565 34.3176 11.0916 46.0057 18.1666 53.2952C25.3476 60.6935 37.2656 60.8378 44.6173 53.6096C49.7535 48.5589 51.3376 41.2562 49.3691 34.8167C49.1522 34.1069 48.2569 33.8848 47.7325 34.4093L44.3713 37.7722C44.1533 37.9904 44.0518 38.2979 44.0929 38.6033C44.5944 42.3455 43.4307 46.2705 40.5995 49.1634C35.7168 54.1532 27.6361 54.23 22.6628 49.3302C17.6547 44.3962 17.6314 36.3058 22.5928 31.3422C25.494 28.4396 29.4639 27.2428 33.2472 27.751C33.5518 27.7918 33.858 27.6906 34.0757 27.4729L37.4374 24.1096C37.9608 23.586 37.7415 22.69 37.0337 22.4735C30.6455 20.5172 23.4065 22.0628 18.362 27.1096Z" fill="black"/>
<path d="M64.7736 8.53095C63.9729 8.50528 63.3295 7.86156 63.304 7.06062L63.1247 1.49548C63.1028 0.829009 62.296 0.509334 61.8245 0.980971L54.572 8.23694C53.4241 9.38541 52.8028 10.9577 52.8553 12.5813C52.8899 13.6614 52.476 14.7073 51.7124 15.4718L33.3006 33.8911C32.6942 34.4984 31.8903 34.8585 31.0361 34.9394C29.8329 35.0527 28.6616 35.57 27.7402 36.4917C27.6874 36.5446 27.6355 36.5982 27.5842 36.654C25.6961 38.7037 25.699 41.9088 27.5911 43.955C29.6785 46.2132 33.2022 46.2651 35.3557 44.1105C36.2754 43.1906 36.7923 42.0198 36.9075 40.8184C36.9888 39.9622 37.347 39.1556 37.9551 38.5471L56.366 20.1279C57.1298 19.3637 58.1758 18.9497 59.2553 18.9845C60.8782 19.0369 62.4498 18.4153 63.5979 17.2669L70.85 10.0109C71.3218 9.53927 71.0024 8.73191 70.3363 8.71033L64.7736 8.53095Z" fill="black"/>
</svg>
