<svg width="35" height="38" viewBox="0 0 35 38" fill="none" xmlns="http://www.w3.org/2000/svg">
<path d="M17.5762 36.1672C16.1937 36.1672 14.9487 35.3573 14.3911 34.1009L12.8024 34.7896C13.635 36.6667 15.5063 37.8853 17.5762 37.8853C19.6767 37.8853 21.5557 36.6516 22.373 34.7366L20.7766 34.063C20.2267 35.3422 18.974 36.1672 17.5762 36.1672ZM34.6245 30.3467L30.0416 26.5622C29.843 26.3957 29.7284 26.161 29.7284 25.9037V15.5191C29.7284 12.1963 28.3918 9.10065 25.9629 6.80727C24.5345 5.45999 22.8389 4.50631 21.0057 3.97648C21.0439 3.71157 21.0592 3.44666 21.0363 3.16661C20.9064 1.69823 19.8142 0.449357 18.3782 0.131461C17.3242 -0.103176 16.2396 0.13903 15.407 0.797528C14.5821 1.45603 14.1085 2.43242 14.1085 3.4845C14.1085 3.65859 14.1391 3.81753 14.162 3.98405C9.09031 5.4827 5.42402 10.2209 5.42402 15.837V25.8961C5.42402 26.1535 5.30945 26.3957 5.11086 26.5546L0.528006 30.3391C0.329415 30.5056 0.214844 30.7478 0.214844 30.9976V31.8604C0.214844 32.3373 0.604387 32.7233 1.08559 32.7233H34.0669C34.5481 32.7233 34.9376 32.3373 34.9376 31.8604V30.9976C34.93 30.7478 34.8154 30.5056 34.6245 30.3467ZM15.8347 3.4845C15.8347 2.95468 16.0715 2.47026 16.484 2.13723C16.9041 1.8042 17.4311 1.68309 17.9887 1.8042C18.6838 1.96314 19.2337 2.59137 19.3024 3.31042C19.3101 3.40881 19.2948 3.50721 19.2872 3.6056C18.531 3.49964 17.7672 3.46179 16.9805 3.49207C16.5986 3.50721 16.2167 3.54505 15.8424 3.6056C15.85 3.56019 15.8347 3.52235 15.8347 3.4845ZM2.43753 31.0052L6.21839 27.8792C6.81416 27.3872 7.15787 26.6682 7.15787 25.8961V15.837C7.15787 10.1376 11.5116 5.46756 17.0721 5.21022C19.9593 5.07398 22.6861 6.08822 24.7637 8.04857C26.8412 10.0165 27.987 12.6656 27.987 15.5191V25.8961C27.987 26.6606 28.3307 27.3872 28.9264 27.8792L32.7073 31.0052H2.43753Z" fill="white"/>
</svg>
