<svg width="28" height="34" viewBox="0 0 28 34" fill="none" xmlns="http://www.w3.org/2000/svg">
<path d="M0 0C0.338012 0.672618 0.682456 1.33994 1.03333 2.00196C4.19123 7.96016 7.87018 13.4893 12.0702 18.5893C16.2702 23.6893 20.9912 28.3602 26.2333 32.602C26.8158 33.0733 27.4047 33.5393 28 34C27.662 33.3274 27.3175 32.6601 26.9667 31.998C23.8088 26.0398 20.1298 20.5107 15.9298 15.4107C11.7298 10.3107 7.00877 5.63983 1.76667 1.39804C1.18421 0.926729 0.595322 0.460715 0 0Z" fill="white"/>
<path d="M28 0C27.4047 0.460715 26.8158 0.926729 26.2333 1.39804C20.9912 5.63983 16.2702 10.3107 12.0702 15.4107C7.87017 20.5107 4.19123 26.0398 1.03333 31.998C0.682455 32.6601 0.338011 33.3274 0 34C0.595321 33.5393 1.18421 33.0733 1.76667 32.602C7.00878 28.3602 11.7298 23.6893 15.9298 18.5893C20.1298 13.4893 23.8088 7.96017 26.9667 2.00196C27.3175 1.33994 27.662 0.672618 28 0Z" fill="white"/>
</svg>
