<svg width="36" height="36" viewBox="0 0 36 36" fill="none" xmlns="http://www.w3.org/2000/svg">
<path d="M35.6832 29.9577L19.8889 3.76429C19.4897 3.1023 18.773 2.69751 17.9999 2.69751C17.2268 2.69751 16.5101 3.10223 16.111 3.76429L0.316825 29.9577C-0.093941 30.639 -0.106105 31.4887 0.285114 32.1814C0.676332 32.8741 1.41018 33.3024 2.2057 33.3024H33.7942C34.5897 33.3024 35.3236 32.874 35.7148 32.1814C36.106 31.4886 36.0939 30.639 35.6832 29.9577ZM18.0117 11.7581C18.9188 11.7581 19.6864 12.2699 19.6864 13.1769C19.6864 15.9446 19.3608 19.9219 19.3608 22.6896C19.3608 23.4107 18.5699 23.7129 18.0117 23.7129C17.2675 23.7129 16.6395 23.4106 16.6395 22.6896C16.6395 19.9219 16.314 15.9446 16.314 13.1769C16.314 12.2699 17.0582 11.7581 18.0117 11.7581ZM18.035 28.8997C17.0117 28.8997 16.2441 28.0624 16.2441 27.1088C16.2441 26.132 17.0116 25.318 18.035 25.318C18.9886 25.318 19.8027 26.132 19.8027 27.1088C19.8027 28.0624 18.9886 28.8997 18.035 28.8997Z" fill="#FF0000"/>
</svg>
