<svg width="56" height="55" viewBox="0 0 56 55" fill="none" xmlns="http://www.w3.org/2000/svg">
<g filter="url(#filter0_dd_418_822)">
<path d="M46.1074 19.6952H42.4246V17.8948C42.4246 10.5802 35.9795 4.6718 27.9995 4.6718C20.0194 4.6718 13.5744 10.5798 13.5744 17.8948V19.6952H9.8916V17.8948C9.8916 8.72318 17.9937 1.29639 27.9989 1.29639C38.0042 1.29639 46.1063 8.72367 46.1063 17.8948L46.1074 19.6952Z" fill="black" fill-opacity="0.05" shape-rendering="crispEdges"/>
<path d="M27.999 1.79639C37.77 1.79643 45.6064 9.04013 45.6064 17.895L45.6074 19.1948H42.9248V17.895C42.9248 10.2643 36.2134 4.17139 27.999 4.17139C19.7849 4.17161 13.0742 10.2639 13.0742 17.895V19.1948H10.3916V17.895C10.3916 9.03962 18.228 1.79639 27.999 1.79639Z" stroke="#0D0D0D" shape-rendering="crispEdges"/>
</g>
<g filter="url(#filter1_dd_418_822)">
<path d="M14.3121 36.2937H9.76992C6.57802 36.2937 4 33.9305 4 31.0046V23.2962C4 20.3703 6.57802 18.0071 9.76992 18.0071H14.3121C15.3556 18.0071 16.1537 18.7387 16.1537 19.6953V34.606C16.1537 35.5625 15.3557 36.2938 14.3121 36.2938V36.2937Z" fill="black" fill-opacity="0.05" shape-rendering="crispEdges"/>
<path d="M9.76953 18.5071H14.3125C15.1215 18.5073 15.6533 19.0553 15.6533 19.6956V34.6057C15.6533 35.2402 15.1311 35.7834 14.334 35.7932H9.76953C6.81211 35.793 4.5 33.6137 4.5 31.0042V23.2961C4.50002 20.6866 6.81213 18.5073 9.76953 18.5071Z" stroke="#0D0D0D" shape-rendering="crispEdges"/>
</g>
<g filter="url(#filter2_dd_418_822)">
<path d="M46.23 36.2936H41.6879C40.6443 36.2936 39.8462 35.5621 39.8462 34.6054V19.6948C39.8462 18.7382 40.6443 18.0066 41.6879 18.0066H46.23C49.4219 18.0066 51.9999 20.3697 51.9999 23.2957V31.0041C51.9999 33.93 49.4219 36.2932 46.23 36.2932V36.2936Z" fill="black" fill-opacity="0.05" shape-rendering="crispEdges"/>
<path d="M41.688 18.5066H46.23C49.1876 18.5066 51.4995 20.6859 51.4995 23.2956V31.0036C51.4995 33.6133 49.1876 35.7927 46.23 35.7927H45.73V35.7937H41.688C40.8787 35.7937 40.3462 35.2456 40.3462 34.6052V19.695L40.3521 19.5759C40.4135 18.988 40.9293 18.5066 41.688 18.5066Z" stroke="#0D0D0D" shape-rendering="crispEdges"/>
</g>
<g filter="url(#filter3_dd_418_822)">
<path d="M39.0493 42.2577H34.1387V38.8818H39.0493C41.6273 38.8818 43.7144 36.9686 43.7144 34.6054H47.3972C47.3972 38.8252 43.6532 42.2577 39.0493 42.2577Z" fill="black" fill-opacity="0.05" shape-rendering="crispEdges"/>
<path d="M46.876 35.1054C46.594 38.7825 43.2304 41.7578 39.0488 41.7578H34.6387V39.3818H39.0488C41.6836 39.3818 43.9153 37.5412 44.1865 35.1054H46.876Z" stroke="#0D0D0D" shape-rendering="crispEdges"/>
</g>
<g filter="url(#filter4_dd_418_822)">
<path d="M29.2893 46.7035C25.5453 46.7035 22.5376 43.9464 22.5376 40.5705C22.5376 37.1946 25.5453 34.4376 29.2281 34.4376C32.9109 34.4376 35.9186 37.1946 35.9186 40.5144C35.9798 42.0899 35.366 43.6653 34.1387 44.7908C32.9109 46.0285 31.131 46.7036 29.2893 46.7036V46.7035ZM29.2281 37.8135C27.5706 37.8135 26.2204 39.0512 26.2204 40.5705C26.2204 42.0899 27.6324 43.3276 29.2893 43.3276C30.1486 43.3276 30.9467 43.0464 31.4989 42.4837C31.9898 41.9771 32.2969 41.3582 32.2353 40.6271V40.571C32.2357 39.0513 30.885 37.8135 29.228 37.8135L29.2281 37.8135Z" fill="black" fill-opacity="0.05" shape-rendering="crispEdges"/>
<path d="M29.228 34.9376C32.6796 34.9376 35.4185 37.514 35.4185 40.5147V40.5245L35.4194 40.5343C35.475 41.9677 34.9157 43.3991 33.8003 44.422L33.7925 44.4308L33.7837 44.4386C32.661 45.5704 31.0145 46.2032 29.2896 46.2032C25.7767 46.2032 23.0376 43.6273 23.0376 40.5704C23.0377 37.5108 25.7796 34.9376 29.228 34.9376ZM29.228 37.3136C27.3363 37.3136 25.7203 38.7349 25.7202 40.5704C25.7202 42.4183 27.412 43.8272 29.2896 43.8272C30.2532 43.8272 31.1908 43.512 31.856 42.8341L31.8579 42.8321C32.4152 42.257 32.8051 41.5088 32.7349 40.6036V40.5714C32.7353 39.1517 31.7692 37.9801 30.4565 37.5216L30.7368 37.3136H29.228Z" stroke="#0D0D0D" shape-rendering="crispEdges"/>
</g>
<defs>
<filter id="filter0_dd_418_822" x="5.8916" y="1.29639" width="44.2158" height="26.3988" filterUnits="userSpaceOnUse" color-interpolation-filters="sRGB">
<feFlood flood-opacity="0" result="BackgroundImageFix"/>
<feColorMatrix in="SourceAlpha" type="matrix" values="0 0 0 0 0 0 0 0 0 0 0 0 0 0 0 0 0 0 127 0" result="hardAlpha"/>
<feOffset dy="4"/>
<feGaussianBlur stdDeviation="2"/>
<feComposite in2="hardAlpha" operator="out"/>
<feColorMatrix type="matrix" values="0 0 0 0 0 0 0 0 0 0 0 0 0 0 0 0 0 0 0.25 0"/>
<feBlend mode="normal" in2="BackgroundImageFix" result="effect1_dropShadow_418_822"/>
<feColorMatrix in="SourceAlpha" type="matrix" values="0 0 0 0 0 0 0 0 0 0 0 0 0 0 0 0 0 0 127 0" result="hardAlpha"/>
<feOffset dy="4"/>
<feGaussianBlur stdDeviation="2"/>
<feComposite in2="hardAlpha" operator="out"/>
<feColorMatrix type="matrix" values="0 0 0 0 0 0 0 0 0 0 0 0 0 0 0 0 0 0 0.25 0"/>
<feBlend mode="normal" in2="effect1_dropShadow_418_822" result="effect2_dropShadow_418_822"/>
<feBlend mode="normal" in="SourceGraphic" in2="effect2_dropShadow_418_822" result="shape"/>
</filter>
<filter id="filter1_dd_418_822" x="0" y="18.0071" width="20.1538" height="26.2867" filterUnits="userSpaceOnUse" color-interpolation-filters="sRGB">
<feFlood flood-opacity="0" result="BackgroundImageFix"/>
<feColorMatrix in="SourceAlpha" type="matrix" values="0 0 0 0 0 0 0 0 0 0 0 0 0 0 0 0 0 0 127 0" result="hardAlpha"/>
<feOffset dy="4"/>
<feGaussianBlur stdDeviation="2"/>
<feComposite in2="hardAlpha" operator="out"/>
<feColorMatrix type="matrix" values="0 0 0 0 0 0 0 0 0 0 0 0 0 0 0 0 0 0 0.25 0"/>
<feBlend mode="normal" in2="BackgroundImageFix" result="effect1_dropShadow_418_822"/>
<feColorMatrix in="SourceAlpha" type="matrix" values="0 0 0 0 0 0 0 0 0 0 0 0 0 0 0 0 0 0 127 0" result="hardAlpha"/>
<feOffset dy="4"/>
<feGaussianBlur stdDeviation="2"/>
<feComposite in2="hardAlpha" operator="out"/>
<feColorMatrix type="matrix" values="0 0 0 0 0 0 0 0 0 0 0 0 0 0 0 0 0 0 0.25 0"/>
<feBlend mode="normal" in2="effect1_dropShadow_418_822" result="effect2_dropShadow_418_822"/>
<feBlend mode="normal" in="SourceGraphic" in2="effect2_dropShadow_418_822" result="shape"/>
</filter>
<filter id="filter2_dd_418_822" x="35.8462" y="18.0066" width="20.1538" height="26.2871" filterUnits="userSpaceOnUse" color-interpolation-filters="sRGB">
<feFlood flood-opacity="0" result="BackgroundImageFix"/>
<feColorMatrix in="SourceAlpha" type="matrix" values="0 0 0 0 0 0 0 0 0 0 0 0 0 0 0 0 0 0 127 0" result="hardAlpha"/>
<feOffset dy="4"/>
<feGaussianBlur stdDeviation="2"/>
<feComposite in2="hardAlpha" operator="out"/>
<feColorMatrix type="matrix" values="0 0 0 0 0 0 0 0 0 0 0 0 0 0 0 0 0 0 0.25 0"/>
<feBlend mode="normal" in2="BackgroundImageFix" result="effect1_dropShadow_418_822"/>
<feColorMatrix in="SourceAlpha" type="matrix" values="0 0 0 0 0 0 0 0 0 0 0 0 0 0 0 0 0 0 127 0" result="hardAlpha"/>
<feOffset dy="4"/>
<feGaussianBlur stdDeviation="2"/>
<feComposite in2="hardAlpha" operator="out"/>
<feColorMatrix type="matrix" values="0 0 0 0 0 0 0 0 0 0 0 0 0 0 0 0 0 0 0.25 0"/>
<feBlend mode="normal" in2="effect1_dropShadow_418_822" result="effect2_dropShadow_418_822"/>
<feBlend mode="normal" in="SourceGraphic" in2="effect2_dropShadow_418_822" result="shape"/>
</filter>
<filter id="filter3_dd_418_822" x="30.1387" y="34.6054" width="21.2583" height="15.6523" filterUnits="userSpaceOnUse" color-interpolation-filters="sRGB">
<feFlood flood-opacity="0" result="BackgroundImageFix"/>
<feColorMatrix in="SourceAlpha" type="matrix" values="0 0 0 0 0 0 0 0 0 0 0 0 0 0 0 0 0 0 127 0" result="hardAlpha"/>
<feOffset dy="4"/>
<feGaussianBlur stdDeviation="2"/>
<feComposite in2="hardAlpha" operator="out"/>
<feColorMatrix type="matrix" values="0 0 0 0 0 0 0 0 0 0 0 0 0 0 0 0 0 0 0.25 0"/>
<feBlend mode="normal" in2="BackgroundImageFix" result="effect1_dropShadow_418_822"/>
<feColorMatrix in="SourceAlpha" type="matrix" values="0 0 0 0 0 0 0 0 0 0 0 0 0 0 0 0 0 0 127 0" result="hardAlpha"/>
<feOffset dy="4"/>
<feGaussianBlur stdDeviation="2"/>
<feComposite in2="hardAlpha" operator="out"/>
<feColorMatrix type="matrix" values="0 0 0 0 0 0 0 0 0 0 0 0 0 0 0 0 0 0 0.25 0"/>
<feBlend mode="normal" in2="effect1_dropShadow_418_822" result="effect2_dropShadow_418_822"/>
<feBlend mode="normal" in="SourceGraphic" in2="effect2_dropShadow_418_822" result="shape"/>
</filter>
<filter id="filter4_dd_418_822" x="18.5376" y="34.4376" width="21.3853" height="20.266" filterUnits="userSpaceOnUse" color-interpolation-filters="sRGB">
<feFlood flood-opacity="0" result="BackgroundImageFix"/>
<feColorMatrix in="SourceAlpha" type="matrix" values="0 0 0 0 0 0 0 0 0 0 0 0 0 0 0 0 0 0 127 0" result="hardAlpha"/>
<feOffset dy="4"/>
<feGaussianBlur stdDeviation="2"/>
<feComposite in2="hardAlpha" operator="out"/>
<feColorMatrix type="matrix" values="0 0 0 0 0 0 0 0 0 0 0 0 0 0 0 0 0 0 0.25 0"/>
<feBlend mode="normal" in2="BackgroundImageFix" result="effect1_dropShadow_418_822"/>
<feColorMatrix in="SourceAlpha" type="matrix" values="0 0 0 0 0 0 0 0 0 0 0 0 0 0 0 0 0 0 127 0" result="hardAlpha"/>
<feOffset dy="4"/>
<feGaussianBlur stdDeviation="2"/>
<feComposite in2="hardAlpha" operator="out"/>
<feColorMatrix type="matrix" values="0 0 0 0 0 0 0 0 0 0 0 0 0 0 0 0 0 0 0.25 0"/>
<feBlend mode="normal" in2="effect1_dropShadow_418_822" result="effect2_dropShadow_418_822"/>
<feBlend mode="normal" in="SourceGraphic" in2="effect2_dropShadow_418_822" result="shape"/>
</filter>
</defs>
</svg>
