<svg width="21" height="50" viewBox="0 0 21 50" fill="none" xmlns="http://www.w3.org/2000/svg">
<path d="M10.1596 2.28683C7.8497 2.28683 5.97115 4.14837 5.97115 6.4365V32.7674L5.59554 33.0117C3.23502 34.5474 1.82711 37.1273 1.82711 39.9147C1.82711 44.4675 5.56427 48.1709 10.1596 48.1709C14.7529 48.1709 18.4904 44.4675 18.4904 39.9147C18.4904 37.1273 17.0827 34.5474 14.7222 33.0117L14.346 32.7674V6.43657C14.346 4.14844 12.4677 2.2869 10.1595 2.2869M10.1595 49.8228C4.64634 49.8228 0.160156 45.3781 0.160156 39.9147C0.160156 36.72 1.7016 33.7529 4.30449 31.8875V6.43643C4.30449 3.2377 6.93177 0.635254 10.1595 0.635254C13.3873 0.635254 16.013 3.23763 16.013 6.4365V31.8875C18.6159 33.7529 20.1573 36.72 20.1573 39.9147C20.1573 45.3781 15.6728 49.8228 10.1596 49.8228" fill="white"/>
<path d="M10.1594 45.7193C6.92855 45.7193 4.30127 43.1155 4.30127 39.9147C4.30127 37.9566 5.29238 36.1417 6.95266 35.061L8.44532 34.0899V21.2819C8.44532 20.3457 9.21377 19.584 10.1594 19.584C11.1034 19.584 11.8718 20.3457 11.8718 21.2819V34.0899L13.3644 35.061C15.0248 36.1417 16.0161 37.9566 16.0161 39.9147C16.0161 43.1154 13.3889 45.7193 10.1594 45.7193Z" fill="white"/>
</svg>
