<svg width="36" height="36" viewBox="0 0 36 36" fill="none" xmlns="http://www.w3.org/2000/svg">
<path d="M34.154 12.7614C33.4513 11.8161 32.5827 11.058 31.607 10.5385C30.6314 10.0191 29.5716 9.75039 28.4993 9.75066H22.5208L23.0244 6.18007C23.2026 4.92269 22.9876 3.63244 22.4187 2.54465C21.8498 1.45686 20.9649 0.644022 19.9253 0.254387C18.8858 -0.135248 17.7608 -0.0757145 16.7558 0.422129C15.7507 0.919972 14.9324 1.82295 14.4501 2.96637L12.0132 8.73074V35.9921H27.4502C29.2539 35.9835 30.995 35.2194 32.3567 33.8388C33.7185 32.4583 34.6105 30.553 34.8704 28.4696L35.927 19.7224C36.0764 18.4816 35.9954 17.2178 35.6895 16.0167C35.3836 14.8156 34.8599 13.7054 34.154 12.7614Z" fill="#26FF3F"/>
<path d="M0 18.5057V27.2528C0.00237978 29.5719 0.792655 31.7951 2.19748 33.435C3.6023 35.0748 5.50697 35.9972 7.49368 36H8.99242V9.75854H7.49368C5.50697 9.76132 3.6023 10.6838 2.19748 12.3236C0.792655 13.9634 0.00237978 16.1867 0 18.5057Z" fill="#26FF3F"/>
</svg>
