<svg width="38" height="38" viewBox="0 0 38 38" fill="none" xmlns="http://www.w3.org/2000/svg">
<path d="M31.6665 3.16667H6.33317C4.58427 3.16667 3.1665 4.58443 3.1665 6.33333V12.6667C3.1665 14.4156 4.58427 15.8333 6.33317 15.8333H31.6665C33.4154 15.8333 34.8332 14.4156 34.8332 12.6667V6.33333C34.8332 4.58443 33.4154 3.16667 31.6665 3.16667Z" stroke="white" stroke-width="2" stroke-linecap="round" stroke-linejoin="round"/>
<path d="M31.6665 22.1667H6.33317C4.58427 22.1667 3.1665 23.5844 3.1665 25.3333V31.6667C3.1665 33.4156 4.58427 34.8333 6.33317 34.8333H31.6665C33.4154 34.8333 34.8332 33.4156 34.8332 31.6667V25.3333C34.8332 23.5844 33.4154 22.1667 31.6665 22.1667Z" stroke="white" stroke-width="2" stroke-linecap="round" stroke-linejoin="round"/>
<path d="M9.5 9.5H9.51583" stroke="white" stroke-width="2" stroke-linecap="round" stroke-linejoin="round"/>
<path d="M9.5 28.5H9.51583" stroke="white" stroke-width="2" stroke-linecap="round" stroke-linejoin="round"/>
</svg>
