<svg width="33" height="33" viewBox="0 0 33 33" fill="none" xmlns="http://www.w3.org/2000/svg">
<path fill-rule="evenodd" clip-rule="evenodd" d="M0.321109 4.48142C0.321109 3.61668 1.58708 2.77403 3.63413 2.11206C5.86272 1.39012 8.95361 0.944336 12.3797 0.944336C15.8058 0.944336 18.8967 1.39012 21.1253 2.11206C23.1723 2.77482 24.4383 3.61668 24.4383 4.48142C24.4383 5.34617 23.1723 6.18803 21.1253 6.85079C18.8967 7.57193 15.8058 8.01851 12.3797 8.01851C8.95361 8.01851 5.86272 7.57193 3.63413 6.85079C1.58708 6.18803 0.321109 5.34617 0.321109 4.48142ZM3.63413 15.013C5.86272 15.7341 8.95361 16.1807 12.3797 16.1807C15.8058 16.1807 18.8967 15.7341 21.1253 15.013C23.1723 14.3502 24.4383 13.5076 24.4383 12.6436V6.66458C24.4383 6.55886 24.3173 6.49889 24.2313 6.56201C23.5417 7.06934 22.6006 7.51513 21.4636 7.88359C19.13 8.63945 15.9165 9.10654 12.3797 9.10654C8.84293 9.10654 5.63023 8.63945 3.29575 7.88359C2.15876 7.51513 1.21764 7.06855 0.528123 6.56201C0.442132 6.49889 0.321109 6.55886 0.321109 6.66458V12.6436C0.321109 13.5076 1.58708 14.3502 3.63413 15.013ZM24.3077 19.676C24.3794 19.676 24.4375 19.6184 24.4375 19.5474V14.826C24.4375 14.7203 24.3165 14.6603 24.2305 14.7234C23.541 15.2308 22.5998 15.6765 21.4628 16.045C19.1284 16.8009 15.9157 17.268 12.3789 17.268C8.84214 17.268 5.62943 16.8001 3.29495 16.045C2.15796 15.6773 1.21684 15.2308 0.527327 14.7234C0.441336 14.6603 0.320312 14.7203 0.320312 14.826V20.805C0.320312 21.6698 1.58628 22.5116 3.63334 23.1744C5.86193 23.8956 8.95281 24.3421 12.3789 24.3421C12.7587 24.3421 13.0804 24.339 13.3471 24.3319C13.4506 24.3295 13.5549 24.3263 13.6608 24.3224C13.7309 24.32 13.7866 24.2632 13.7866 24.1938V21.6003C13.7866 21.0709 14.0048 20.5896 14.3567 20.2409L14.3925 20.2086C14.742 19.8795 15.2126 19.6768 15.7278 19.6768H24.3077V19.676ZM13.8049 25.5154C13.7961 25.4515 13.7388 25.4049 13.6735 25.4073C13.5748 25.4104 13.4745 25.4136 13.3734 25.416C12.9928 25.4254 12.6608 25.4302 12.3797 25.4302C8.84293 25.4302 5.63023 24.9631 3.29575 24.2072C2.15876 23.8395 1.21764 23.393 0.528123 22.8856C0.442132 22.8225 0.321109 22.8825 0.321109 22.9882V28.9672C0.321109 29.832 1.58788 30.6738 3.63413 31.3366C5.86272 32.0578 8.9544 32.5043 12.3797 32.5043C12.8877 32.5043 13.3551 32.4964 13.7826 32.4807C13.871 32.4775 13.9283 32.3891 13.8989 32.3063C13.8272 32.1059 13.7882 31.8913 13.7882 31.668V28.0141C13.7882 27.4847 14.0063 27.0034 14.3583 26.6555L14.3814 26.6342L14.3583 26.6113C14.0637 26.3201 13.8638 25.9391 13.8049 25.5154ZM15.133 25.8467C14.9793 25.6945 14.8846 25.4854 14.8846 25.2542V21.6003C14.8846 21.3708 14.9801 21.1617 15.133 21.0102L15.1553 20.9865C15.305 20.8492 15.5064 20.764 15.7285 20.764H31.3263C31.558 20.764 31.769 20.8587 31.9218 21.0102C32.0747 21.1617 32.1703 21.3708 32.1703 21.6003V25.2542C32.1703 25.4846 32.0763 25.6937 31.9242 25.8444C31.769 25.9959 31.558 26.0905 31.3263 26.0905H15.7285C15.4953 26.0905 15.2843 25.9967 15.133 25.8467ZM22.1723 23.4277C22.1723 23.7283 22.4183 23.9713 22.7209 23.9713H30.4194C30.7228 23.9713 30.968 23.7275 30.968 23.4277C30.968 23.1271 30.722 22.8841 30.4194 22.8841H22.7209C22.4175 22.8833 22.1723 23.1271 22.1723 23.4277ZM16.6322 23.4277C16.6322 23.7283 16.8783 23.9721 17.1808 23.9721C17.4842 23.9721 17.7294 23.7283 17.7294 23.4277C17.7294 23.1271 17.4834 22.8841 17.1808 22.8841C16.8783 22.8833 16.6322 23.1271 16.6322 23.4277ZM32.1695 28.0141V31.668C32.1695 31.8984 32.0755 32.1075 31.9234 32.2582C31.7682 32.4096 31.5572 32.5043 31.3255 32.5043H15.7278C15.6195 32.5043 15.516 32.4838 15.4212 32.4475L15.3941 32.4365C15.2954 32.3947 15.2062 32.3339 15.1322 32.2605C14.9785 32.1082 14.8838 31.8992 14.8838 31.668V28.0141C14.8838 27.7845 14.9793 27.5754 15.1322 27.424L15.1545 27.4003C15.3042 27.263 15.5056 27.1778 15.7278 27.1778H31.3255C31.5572 27.1778 31.7682 27.2725 31.9211 27.424C32.0739 27.5754 32.1695 27.7845 32.1695 28.0141ZM17.7302 29.8817C17.7302 29.5811 17.4842 29.3381 17.1816 29.3381C16.8783 29.3381 16.633 29.5819 16.633 29.8825C16.633 30.1831 16.8791 30.4269 17.1816 30.4269C17.4842 30.4261 17.7302 30.1823 17.7302 29.8817ZM30.968 29.8415C30.968 29.5408 30.722 29.2978 30.4194 29.2978H22.7209C22.4175 29.2978 22.1723 29.5416 22.1723 29.8415C22.1723 30.1421 22.4183 30.3851 22.7209 30.3851H30.4194C30.722 30.3851 30.968 30.1413 30.968 29.8415Z" fill="white"/>
</svg>
