<svg width="46" height="46" viewBox="0 0 46 46" fill="none" xmlns="http://www.w3.org/2000/svg">
<path d="M23.0002 42.1667C33.5856 42.1667 42.1668 33.5855 42.1668 23C42.1668 12.4146 33.5856 3.83334 23.0002 3.83334C12.4147 3.83334 3.8335 12.4146 3.8335 23C3.8335 33.5855 12.4147 42.1667 23.0002 42.1667Z" stroke="white" stroke-width="2" stroke-linecap="round" stroke-linejoin="round"/>
<path d="M17.4224 17.25C17.873 15.969 18.7624 14.8889 19.9331 14.2008C21.1038 13.5128 22.4802 13.2613 23.8186 13.4909C25.157 13.7204 26.3709 14.4162 27.2454 15.4551C28.1199 16.4939 28.5986 17.8087 28.5965 19.1667C28.5965 23 22.8465 24.9167 22.8465 24.9167" stroke="white" stroke-width="2" stroke-linecap="round" stroke-linejoin="round"/>
<path d="M23 32.5833H23.0192" stroke="white" stroke-width="2" stroke-linecap="round" stroke-linejoin="round"/>
</svg>
