<svg width="800" height="800" viewBox="0 0 800 800" fill="none" xmlns="http://www.w3.org/2000/svg">
<path d="M670.396 147.177C675.995 149.635 680.073 152.823 684.146 157.364C689.36 164.875 691.292 170.932 692.261 180.068C697.958 259.969 650.531 348.125 617.422 418.646L615.787 413.75C616.469 410.693 617.167 407.635 617.969 404.609C623.162 384.948 625.042 364.5 621.24 344.385C618.412 335.552 613.906 328.448 607.485 321.765C600.776 315.974 593.344 312.88 584.875 310.5C549.557 303.797 511.745 314.161 478.594 325.698C422.307 345.922 368.464 373.489 317.063 403.953L312.031 406.917C265.417 434.463 220.063 464.542 176.271 496.385L172.521 499.104C162.401 506.458 152.36 513.917 142.396 521.484L138.604 524.359C103.583 550.729 103.583 550.729 69.9429 578.812C65.4897 582.708 61.3856 586.146 55.8804 588.411C70.1408 556.833 101.516 528.229 125.063 503.094C127.854 500.104 130.63 497.104 133.406 494.104C144.323 482.323 155.448 470.734 166.781 459.354L170.172 455.937C176.62 449.51 183.255 443.411 190.146 437.469C193.427 434.594 196.5 431.573 199.531 428.437C204.672 423.229 209.995 418.364 215.547 413.594C219.698 409.979 223.74 406.255 227.792 402.526C235.042 395.911 242.495 389.661 250.13 383.505C255.839 378.802 261.401 373.937 266.969 369.062C277.557 359.812 288.453 351.047 299.583 342.453C302.313 340.333 305.026 338.193 307.735 336.042C331.828 316.901 356.505 298.536 381.761 280.953C386.11 277.917 390.448 274.87 394.776 271.812C411.448 260.099 428.156 248.573 445.604 238.047C449.844 235.479 454.068 232.89 458.297 230.302C618.86 132.489 618.86 132.489 670.396 147.177Z" fill="black"/>
<path d="M716.995 296.219C718.932 302.177 718.63 307.521 718.302 313.745L718.13 317.031C717.938 320.604 717.724 324.172 717.505 327.739L717.281 331.474C712.526 408.786 699.797 492.641 656.344 558.63C644.995 575.599 631.917 590.354 617.422 604.734L614.083 608.114C590.208 630.989 558.755 646.135 526.932 654.292C484.37 664.375 439.807 665.151 397.537 653.203C368.203 644.391 340.636 631.547 313.063 618.37C269.037 597.328 225.047 578.667 175.167 582.531C156.516 584.307 137.089 587.901 119.787 595.297L116.281 596.573L111.38 594.943C145.214 575.031 178.646 558.885 218.61 558.521L223.583 558.375C250.214 558.161 275.521 566.489 300.578 574.656C327.578 583.422 354.198 590.885 382.36 594.943L388.537 595.911C431.979 601.042 474.193 594.859 514.578 578.62C543.932 565.885 568.412 546.818 591.302 524.75L595.391 520.974C653.438 465.818 686.453 383.198 711.49 309.016L712.979 304.614L714.266 300.755C715.365 297.849 715.365 297.849 716.995 296.219Z" fill="black"/>
<mask id="mask0_43_1875" style="mask-type:luminance" maskUnits="userSpaceOnUse" x="40" y="377" width="719" height="329">
<path d="M40 377.333H758.667V705.094H40V377.333Z" fill="white"/>
</mask>
<g mask="url(#mask0_43_1875)">
<path d="M433.573 749.203C445.26 753.76 455.703 760.646 464.01 770.094C466.307 773.13 468.474 776.177 470.505 779.401C465.953 784.771 459.938 787.771 453.875 791.135L450.641 792.953C448.016 794.427 445.391 795.896 442.755 797.359L440.771 795.443C433.443 788.729 426.188 783.984 416.635 781.036C408.536 780.005 402.906 780.927 395.214 783.583C388.297 786.594 383.797 790.057 379.281 796.088C375.125 802.698 373.948 808.849 373.479 816.536C373.656 824.755 376.062 830.833 380.042 837.958C384.302 844.354 389.094 847.177 395.724 850.818C403.12 853.729 410.448 853.995 418.271 852.859C424.651 850.594 429.797 847.859 434.594 843.062L413.375 841.432V812.047C422.641 812.01 431.911 811.979 441.182 811.958C444.339 811.953 447.49 811.937 450.646 811.927C455.172 811.906 459.698 811.896 464.224 811.891L468.526 811.865C471.906 811.865 475.286 811.948 478.667 812.047L480.302 813.682C480.453 815.937 480.49 818.198 480.484 820.458V824.818L480.458 829.552L480.453 834.375C480.443 839.484 480.422 844.588 480.401 849.698C480.396 853.151 480.385 856.604 480.38 860.052C480.365 868.542 480.333 877.021 480.302 885.505H447.651L446.021 878.979L443.609 880.292C430.901 886.625 417.641 889.016 403.458 888.635C389.672 886.963 377.682 881.354 366.031 874.078C354.656 865.26 347.333 854.531 341.547 841.432C336.922 830.083 337.427 817.557 338.281 805.521C340.328 793.312 345.75 782.833 352.974 772.87C362.271 761.88 372.766 753.651 386.339 748.693C401.385 744.656 418.646 744.828 433.573 749.203ZM202.797 748.385L238.604 748.083L249.823 747.948C252.797 747.932 255.771 747.917 258.75 747.906L263.328 747.833C274.911 747.828 284.714 749.917 294.948 755.443C302.604 761.255 308.042 767.391 312.167 776.135C315.25 785.557 314.844 795.786 313.797 805.521C311.01 814.401 307.229 821.927 300.557 828.5C297.432 830.943 294.469 833.088 290.943 834.901H287.677C290.734 840.042 293.797 845.177 296.859 850.307L299.443 854.656C304.469 863.068 309.682 871.271 315.286 879.312L317.062 882.24V885.505C307.141 886.26 297.25 886.687 287.297 886.484L282.349 886.391C277.885 885.505 277.885 885.505 273.906 882.505C270.188 878.344 268.63 874.333 266.458 869.182C263.63 864.109 260.562 859.203 257.479 854.286L255.302 850.474L253.141 846.927L251.266 843.719L248.5 841.432H237.073L235.443 885.505H202.797V748.385ZM235.443 777.771V810.417C241.26 810.594 247.068 810.724 252.891 810.823L257.87 810.99C262.453 811.052 266.812 811.01 271.354 810.417C276.484 807.687 276.484 807.687 279.516 803.885C281.661 799.599 281.672 795.625 281.63 790.896C281.318 787.099 281.318 787.099 278.089 782.771C274.906 779.338 274.906 779.338 271.354 777.771C268.63 777.641 265.906 777.583 263.182 777.609L258.302 777.625L253.193 777.667L248.052 777.687C243.849 777.713 239.646 777.74 235.443 777.771ZM699.552 746.245C700.771 746.255 701.99 746.26 703.25 746.271C716.26 746.557 726.578 749.245 737.807 755.937C745.26 761.229 750.688 767.828 754.542 776.135V782.667C749.984 784.578 745.427 786.479 740.87 788.38L736.943 790.031L733.177 791.594L729.708 793.042C726.792 794.094 726.792 794.094 723.526 794.094L720.568 789.401C717.474 784.297 717.474 784.297 713.526 782.052C706.469 780.521 699.693 780.245 692.51 781.036C686.786 783.203 686.786 783.203 682.714 785.932V794.094L687.568 795.292C692.198 796.443 696.828 797.599 701.453 798.771C706.125 799.953 710.802 801.088 715.505 802.167C727.953 805.172 738.24 808.453 748.01 816.948C752.885 822.073 755.531 826.62 757.807 833.271C758.938 842.687 758.802 851.833 755.255 860.713C751.38 868.161 746.599 873.969 739.849 878.979C727.474 886.177 713.141 888.036 699.042 888.771C686.396 888.307 675.5 884.687 664.391 878.708C657.13 873.906 651.599 868.276 646.802 861.021C645.083 857.078 644.266 853.865 643.536 849.594C647.484 848 651.432 846.422 655.385 844.849C658.141 843.755 660.891 842.63 663.625 841.484C672.047 838.052 672.047 838.052 676.312 838.62C681.156 840.443 683.984 844.333 687.615 847.963C692.219 851.068 695.833 852.698 701.375 853.266C707.453 853.411 712.818 853.083 718.729 851.635L721.891 849.594C723.651 846.51 723.651 846.51 723.526 843.062L720.26 838.167C716.401 836.917 712.495 835.865 708.526 835.005L701.417 833.312C697.854 832.49 694.292 831.672 690.724 830.865C668.276 825.74 668.276 825.74 659.068 817.771C654.281 813.01 650.833 808.833 648.026 802.661C645.797 793.005 645.948 784.422 648.844 774.911C651.161 768.812 653.422 764.37 658.229 759.812C671.385 750.609 683.49 746.115 699.552 746.245ZM93.4271 748.385H129.339C135.693 760.594 140.922 772.943 145.807 785.797L149.307 794.896C150.922 799.109 152.531 803.323 154.135 807.536C156.938 814.865 159.75 822.187 162.557 829.51C164.099 833.526 165.635 837.536 167.167 841.547C171.875 853.828 176.688 866.057 181.698 878.219C183.208 882.24 183.208 882.24 183.208 885.505H147.292C140.766 872.448 140.766 872.448 137.5 859.391H86.8958L82 875.713L77.1042 885.505H41.1875C46.6979 867.141 46.6979 867.141 49.2292 860.635L50.9531 856.182L52.776 851.526C53.4115 849.88 54.0521 848.24 54.7083 846.542C56.7604 841.266 58.8177 835.99 60.8802 830.719L65.099 819.875C74.4062 795.99 83.8229 772.156 93.4271 748.385ZM111.38 797.359L107.505 806.641L105.323 811.865L103.219 816.948L101.318 821.365C99.6771 825.213 99.6771 825.213 99.9531 830.005H124.443C123.354 824.583 122.516 820.609 120.505 815.687L119.182 812.422L117.807 809.088L116.417 805.661C115.286 802.891 114.151 800.125 113.016 797.359H111.38ZM501.521 748.385C506.656 748.338 511.792 748.307 516.927 748.286L521.37 748.245L525.594 748.224L529.505 748.198L532.536 748.385L534.167 750.021C534.323 752.557 534.401 755.094 534.401 757.641L534.438 762.562L534.458 767.932C534.495 771.661 534.531 775.385 534.573 779.12C534.63 785.016 534.677 790.911 534.703 796.807C534.724 802.484 534.792 808.161 534.865 813.844L534.854 819.141C535.005 828.479 535.964 835.531 540.5 843.766C543.75 848.312 547.13 850.458 552.125 852.859C558.24 854.338 562.51 855.005 568.635 853.828C574.682 851.911 578.193 849.635 582.938 845.307C588.599 836.312 589.766 826.922 590.193 816.396C590.255 813.229 590.307 810.057 590.344 806.891L590.443 801.792C590.542 796.469 590.615 791.151 590.688 785.828L590.88 774.943C591.042 766.088 591.172 757.24 591.302 748.385H623.948C624.031 760.203 624.089 772.026 624.13 783.844C624.146 787.865 624.167 791.88 624.193 795.896C624.234 801.687 624.255 807.479 624.266 813.266L624.318 818.661C624.318 831.344 623.583 843.984 617.318 855.307C611.312 865.354 603.479 873.87 593.484 880.021C580.833 886.516 569.792 888 555.682 887.682C545.797 887.135 537.714 884.099 529.271 878.979C518.677 871.469 511.312 862.974 505.042 851.656C498.385 832.88 499.432 813 499.552 793.359C499.583 788.13 499.583 782.901 499.583 777.677C499.594 774.354 499.604 771.031 499.615 767.708L499.62 762.969L499.651 758.604L499.672 754.76C499.891 751.651 499.891 751.651 501.521 748.385ZM432.964 477.411C435.641 479.62 438.281 481.87 440.891 484.167C444.37 487.266 444.37 487.266 448.219 490.062C452.667 493.755 455.891 497.057 459.078 501.896C460.854 510.776 460.479 519.062 460 528.12L459.078 552.5H408.474L407.76 528.833L407.448 521.443C407.219 505.807 407.219 505.807 410.812 499.292C413.661 496.016 416.578 493.245 419.901 490.469L423.875 486.338L427.146 483.125L430.505 479.807L432.964 477.411ZM482.979 440.104C488.672 440.031 494.302 440.276 499.99 440.578L524.375 441.5V492.104L500.703 492.818L493.318 493.13C477.682 493.359 477.682 493.359 471.167 489.76C467.891 486.917 465.12 484 462.344 480.677L458.214 476.703C457.151 475.625 456.089 474.547 455 473.432L451.682 470.073L449.286 467.615C451.495 464.937 453.745 462.292 456.042 459.687C459.141 456.208 459.141 456.208 461.938 452.359C468.146 444.875 472.974 440.734 482.979 440.104ZM348.078 441.5L371.745 440.786L379.135 440.469C385.276 440.38 390.979 440.51 397.047 441.5C402.479 444.536 406.13 448.198 410.109 452.927L413.943 456.312L416.74 458.943L419.656 461.615L421.536 464.354C421.109 467.484 421.109 467.484 419.901 470.88C416.802 474.375 413.573 477.74 410.208 480.984C409.307 481.87 408.411 482.766 407.484 483.682C400.818 490.219 400.818 490.219 397.047 492.104C393.375 492.245 389.693 492.276 386.016 492.26L380.016 492.25L372.359 492.203L348.078 492.104V441.5ZM408.474 377.833H459.078L459.792 401.505L460.109 408.891C460.198 415.036 460.068 420.74 459.078 426.807C456.042 432.24 452.38 435.885 447.651 439.865L444.266 443.698L441.635 446.495L438.964 449.411L436.224 451.292C433.094 450.865 433.094 450.865 429.698 449.661C426.203 446.562 422.839 443.328 419.599 439.969L416.896 437.245C410.359 430.578 410.359 430.578 408.474 426.807C408.344 423.13 408.292 419.453 408.318 415.776L408.328 409.776L408.375 402.115L408.474 377.833Z" fill="black"/>
</g>
</svg>
