<svg width="80" height="80" viewBox="0 0 80 80" fill="none" xmlns="http://www.w3.org/2000/svg">
<path d="M66.4187 2.88987C66.9661 3.12997 67.3646 3.44143 67.762 3.88466C68.2713 4.61903 68.4604 5.2107 68.5547 6.10341C69.112 13.9097 64.4781 22.5232 61.2432 29.4128L61.0833 28.9347C61.15 28.6357 61.2182 28.3373 61.2963 28.042C61.8042 26.1206 61.9875 24.1227 61.6161 22.1576C61.3401 21.2946 60.9 20.6003 60.2724 19.9477C59.6167 19.3821 58.8906 19.0795 58.063 18.8466C54.6125 18.1919 50.9182 19.205 47.6797 20.3315C42.1797 22.3076 36.9193 25.0008 31.8974 27.9774L31.4052 28.267C26.851 30.9586 22.4198 33.8972 18.1411 37.0086L17.775 37.2742C16.7864 37.9925 15.8052 38.7216 14.8318 39.4607L14.4609 39.742C11.0396 42.318 11.0396 42.318 7.75311 45.0617C7.31769 45.4425 6.91665 45.7779 6.37915 45.9998C7.77238 42.9143 10.8375 40.1201 13.138 37.6638C13.4109 37.3716 13.6823 37.0789 13.9536 36.7857C15.0203 35.6341 16.1073 34.5024 17.2146 33.3899L17.5453 33.0565C18.1755 32.4289 18.8239 31.8326 19.4974 31.2518C19.8177 30.9711 20.1182 30.6763 20.414 30.3701C20.9161 29.8607 21.4364 29.3857 21.9792 28.9196C22.3844 28.5664 22.7792 28.2024 23.175 27.8378C23.8833 27.192 24.6114 26.581 25.3573 25.9795C25.9156 25.5201 26.4588 25.0451 27.0031 24.5685C28.0375 23.6649 29.1021 22.8081 30.1896 21.969C30.4562 21.7617 30.7213 21.5529 30.9854 21.3425C33.3401 19.4722 35.751 17.6779 38.2182 15.9602C38.6432 15.6633 39.0672 15.3654 39.4901 15.0669C41.1193 13.9227 42.751 12.7966 44.4557 11.768C44.8703 11.5175 45.2828 11.2643 45.6958 11.0112C61.3833 1.45445 61.3833 1.45445 66.4187 2.88987Z" fill="black"/>
<path d="M70.9719 17.4513C71.1609 18.0336 71.1318 18.556 71.0995 19.1638L71.0828 19.4852C71.0635 19.8341 71.0427 20.1826 71.0214 20.5315L70.9995 20.8961C70.5349 28.4498 69.2912 36.6425 65.0458 43.0899C63.937 44.7477 62.6594 46.1893 61.2432 47.5946L60.9172 47.9248C58.5844 50.1597 55.5109 51.6393 52.4021 52.4362C48.2438 53.4216 43.8896 53.4972 39.7599 52.33C36.8938 51.4685 34.2005 50.2143 31.5063 48.9263C27.2047 46.8706 22.9068 45.0477 18.0339 45.4253C16.2115 45.5987 14.3136 45.9498 12.6224 46.6727L12.2802 46.7972L11.8016 46.6378C15.1068 44.6925 18.3734 43.1149 22.2781 43.0789L22.7641 43.0649C25.3656 43.044 27.8386 43.8581 30.2865 44.656C32.9245 45.5123 35.5255 46.2409 38.2766 46.6378L38.8802 46.7326C43.125 47.2336 47.249 46.6295 51.1953 45.043C54.063 43.7987 56.4547 41.9357 58.6912 39.7795L59.0906 39.4107C64.762 34.0216 67.988 25.9498 70.4339 18.7018L70.5792 18.2716L70.7047 17.8951C70.8125 17.6107 70.8125 17.6107 70.9719 17.4513Z" fill="black"/>
<path d="M43.2807 61.7091C44.4224 62.155 45.4427 62.8274 46.2541 63.7503C46.4791 64.0472 46.6906 64.3451 46.889 64.6597C46.4442 65.1841 45.8567 65.4774 45.2646 65.806L44.9479 65.9841C44.6916 66.1279 44.4349 66.2711 44.1776 66.4143L43.9838 66.2274C43.2677 65.5711 42.5588 65.1076 41.626 64.8196C40.8343 64.719 40.2843 64.8091 39.5328 65.0685C38.8573 65.3628 38.4172 65.7013 37.9765 66.2904C37.5703 66.9362 37.4552 67.5373 37.4093 68.2883C37.4265 69.0909 37.6614 69.6847 38.0505 70.381C38.4666 71.0055 38.9349 71.2821 39.5828 71.6373C40.3052 71.9216 41.0213 71.9477 41.7854 71.8367C42.4088 71.6159 42.912 71.3482 43.3802 70.88L41.3067 70.7206V67.8498C42.2125 67.8456 43.1182 67.843 44.0239 67.8409C44.3323 67.8399 44.6406 67.8388 44.9489 67.8378C45.3911 67.8357 45.8333 67.8347 46.2755 67.8341L46.6958 67.8315C47.026 67.8315 47.3562 67.8393 47.6864 67.8498L47.8458 68.0091C47.8609 68.2295 47.8646 68.4503 47.864 68.6716V69.0972L47.8614 69.5597L47.8609 70.031C47.8599 70.53 47.8578 71.0289 47.8562 71.5279C47.8552 71.8654 47.8541 72.2024 47.8536 72.5399C47.8521 73.369 47.8489 74.1977 47.8458 75.0263H44.6562L44.4968 74.3888L44.2609 74.517C43.0192 75.1357 41.7239 75.3696 40.338 75.3326C38.9911 75.169 37.8198 74.6211 36.6817 73.9102C35.5698 73.0482 34.8547 72.0003 34.2896 70.7206C33.8375 69.6117 33.887 68.3878 33.9703 67.2117C34.1703 66.019 34.7 64.9956 35.4057 64.0216C36.314 62.9482 37.3396 62.144 38.6656 61.6597C40.1359 61.2654 41.8218 61.2821 43.2807 61.7091ZM20.7328 61.6295L24.2317 61.5998L25.3276 61.5867C25.6182 61.5852 25.9088 61.5836 26.2 61.5826L26.6468 61.5753C27.7791 61.5748 28.7364 61.7795 29.7364 62.319C30.4849 62.8867 31.0156 63.4862 31.4187 64.3409C31.7203 65.2612 31.6802 66.2607 31.5781 67.2117C31.3057 68.0795 30.9364 68.8149 30.2849 69.4571C29.9791 69.6956 29.6896 69.9055 29.3453 70.0826H29.0265C29.325 70.5841 29.6239 71.0862 29.9234 71.5878L30.1755 72.0123C30.6672 72.8341 31.176 73.6357 31.7234 74.4216L31.8974 74.7076V75.0263C30.9276 75.1003 29.9614 75.142 28.989 75.1222L28.5057 75.1133C28.0692 75.0263 28.0692 75.0263 27.6807 74.7336C27.3172 74.3263 27.1656 73.9347 26.9526 73.4315C26.6771 72.9362 26.3771 72.4571 26.0755 71.9763L25.863 71.6039L25.6521 71.2576L25.4687 70.944L25.1984 70.7206H24.0823L23.9229 75.0263H20.7328V61.6295ZM23.9229 64.5003V67.6899C24.4911 67.7076 25.0588 67.7201 25.6271 67.73L26.114 67.7461C26.562 67.7524 26.9875 67.7482 27.4312 67.6899C27.9328 67.4232 27.9328 67.4232 28.2291 67.0524C28.4385 66.6331 28.4396 66.2451 28.4349 65.7826C28.4047 65.4117 28.4047 65.4117 28.0896 64.9888C27.7781 64.6534 27.7781 64.6534 27.4312 64.5003C27.1656 64.4878 26.8989 64.4826 26.6328 64.4847L26.1562 64.4862L25.6573 64.4904L25.1547 64.4925C24.7437 64.4946 24.3333 64.4972 23.9229 64.5003ZM69.2672 61.4201C69.3864 61.4211 69.5057 61.4216 69.6286 61.4232C70.8995 61.4508 71.9083 61.7133 73.0052 62.367C73.7333 62.8847 74.2635 63.5295 74.6401 64.3409V64.9789C74.1948 65.1654 73.75 65.3513 73.3041 65.5373L72.9203 65.6982L72.5531 65.8508L72.214 65.9925C71.9286 66.0951 71.9286 66.0951 71.6099 66.0951L71.3208 65.6367C71.0182 65.1383 71.0182 65.1383 70.6328 64.919C69.9432 64.769 69.2812 64.742 68.5797 64.8196C68.0203 65.0315 68.0203 65.0315 67.6224 65.2977V66.0951L68.0968 66.2123C68.5489 66.3248 69.001 66.4378 69.4531 66.5524C69.9093 66.668 70.3666 66.7784 70.826 66.8841C72.0422 67.1774 73.0474 67.4982 74.0021 68.3279C74.4781 68.8289 74.7364 69.2732 74.9588 69.9232C75.0692 70.843 75.0562 71.7367 74.7099 72.6045C74.3312 73.3321 73.864 73.8992 73.2047 74.3888C71.9953 75.092 70.5953 75.2737 69.2172 75.3456C67.9817 75.3003 66.9177 74.9466 65.8317 74.3623C65.1229 73.893 64.5823 73.3435 64.1135 72.6341C63.9458 72.2492 63.8656 71.9352 63.7948 71.518C64.1802 71.3623 64.5661 71.2076 64.9526 71.0545C65.2218 70.9472 65.4901 70.8373 65.7573 70.7253C66.5802 70.3899 66.5802 70.3899 66.9968 70.4456C67.4703 70.6237 67.7463 71.0039 68.101 71.3581C68.551 71.6617 68.9041 71.8206 69.4453 71.8769C70.039 71.8909 70.5635 71.8586 71.1411 71.717L71.45 71.518C71.6218 71.2164 71.6218 71.2164 71.6099 70.88L71.2906 70.4013C70.914 70.2789 70.5317 70.1763 70.1442 70.0925L69.45 69.9274C69.1015 69.8466 68.7536 69.767 68.4052 69.6878C66.2114 69.1873 66.2114 69.1873 65.312 68.4086C64.8442 67.9435 64.5073 67.5352 64.2333 66.9326C64.0156 65.9888 64.0302 65.1503 64.313 64.2211C64.5396 63.6253 64.7604 63.1914 65.2302 62.7461C66.5156 61.8472 67.6979 61.4081 69.2672 61.4201ZM10.0474 61.6295H13.5557C14.1765 62.8222 14.6875 64.0284 15.1651 65.2847L15.5067 66.1737C15.6646 66.5852 15.8218 66.9972 15.9791 67.4086C16.2521 68.1248 16.5271 68.8404 16.8015 69.556C16.9521 69.9477 17.1021 70.3399 17.2521 70.7315C17.712 71.9315 18.1823 73.1263 18.6719 74.3149C18.8192 74.7076 18.8192 74.7076 18.8192 75.0263H15.3104C14.6724 73.7508 14.6724 73.7508 14.3536 72.4748H9.40935L8.9307 74.0696L8.45258 75.0263H4.94373C5.48175 73.2326 5.48175 73.2326 5.72914 72.5966L5.89737 72.1612L6.0755 71.7065C6.138 71.5461 6.2005 71.3852 6.26456 71.2196C6.46508 70.7039 6.66612 70.1888 6.86768 69.6737L7.27966 68.6143C8.18904 66.2805 9.10935 63.9518 10.0474 61.6295ZM11.8015 66.4143L11.4229 67.3211L11.2099 67.8315L11.0041 68.3279L10.8187 68.7597C10.6578 69.1357 10.6578 69.1357 10.6854 69.6039H13.0776C12.9713 69.0742 12.8896 68.6857 12.6932 68.2055L12.564 67.8862L12.4297 67.5607L12.2932 67.2253C12.1833 66.955 12.0724 66.6847 11.9609 66.4143H11.8015ZM49.9192 61.6295C50.4208 61.6253 50.9229 61.6216 51.4245 61.6196L51.8583 61.6154L52.2713 61.6138L52.6531 61.6112L52.9495 61.6295L53.1088 61.7888C53.1245 62.0367 53.1317 62.2852 53.1317 62.5336L53.1349 63.0143L53.137 63.5393C53.1406 63.9034 53.1448 64.2675 53.1484 64.6321C53.1541 65.2081 53.1588 65.7841 53.1609 66.3602C53.1635 66.9154 53.1698 67.4701 53.1771 68.0248L53.176 68.5425C53.1911 69.455 53.2843 70.144 53.7276 70.9482C54.0453 71.3925 54.3755 71.6024 54.8635 71.8367C55.4609 71.9815 55.8781 72.0466 56.4765 71.9315C57.0672 71.7446 57.4104 71.5222 57.8739 71.0992C58.4271 70.2206 58.5411 69.3029 58.5823 68.2742C58.589 67.9649 58.5937 67.655 58.5979 67.3456L58.6073 66.8477C58.6166 66.3274 58.6239 65.8076 58.6312 65.2878L58.65 64.2237C58.6656 63.3591 58.6781 62.4946 58.6911 61.6295H61.8807C61.8885 62.7841 61.8948 63.9388 61.8984 65.094C61.9 65.4867 61.9021 65.8789 61.9047 66.2711C61.9088 66.8373 61.9109 67.4029 61.912 67.9685L61.9172 68.4956C61.9172 69.7347 61.8453 70.9696 61.2328 72.0758C60.6458 73.0576 59.8807 73.8893 58.9041 74.4909C57.6682 75.1253 56.5896 75.2701 55.2109 75.2388C54.2448 75.1857 53.4557 74.8893 52.6307 74.3888C51.5958 73.655 50.876 72.8253 50.263 71.719C49.613 69.8852 49.7156 67.9425 49.7271 66.0237C49.7302 65.5128 49.7302 65.0018 49.7302 64.4909C49.7307 64.1664 49.7317 63.842 49.7328 63.5175L49.7333 63.0539L49.7364 62.6279L49.7385 62.2524C49.7599 61.9487 49.7599 61.9487 49.9192 61.6295ZM43.2208 35.1545C43.4828 35.3706 43.7406 35.5904 43.9953 35.8149C44.3354 36.1175 44.3354 36.1175 44.7114 36.3909C45.1458 36.7513 45.4609 37.0737 45.7724 37.5466C45.9463 38.4143 45.9093 39.2242 45.8625 40.1086L45.7724 42.4909H40.8286L40.7588 40.1784L40.7276 39.4565C40.7057 37.9289 40.7057 37.9289 41.0567 37.2925C41.3349 36.9722 41.6198 36.7013 41.9448 36.4305L42.3333 36.0268L42.6526 35.7128L42.9812 35.3888L43.2208 35.1545ZM48.1073 31.5097C48.664 31.5024 49.214 31.5263 49.7698 31.556L52.1521 31.6456V36.5899L49.8396 36.6597L49.1177 36.6904C47.5901 36.7128 47.5901 36.7128 46.9536 36.3612C46.6333 36.0836 46.3625 35.7982 46.0916 35.4737L45.688 35.0852C45.5843 34.98 45.4807 34.8742 45.3739 34.7659L45.05 34.4373L44.8156 34.1977C45.0317 33.9357 45.2515 33.6774 45.476 33.4227C45.7786 33.0831 45.7786 33.0831 46.0521 32.7071C46.6583 31.9758 47.1302 31.5711 48.1078 31.5097M34.9276 31.6456L37.2401 31.5758L37.9614 31.5451C38.562 31.5362 39.1192 31.5492 39.712 31.6456C40.2427 31.9425 40.5989 32.3003 40.988 32.7623L41.3625 33.093L41.6359 33.3503L41.9208 33.6112L42.1041 33.8784C42.0625 34.1847 42.0625 34.1847 41.9448 34.5164C41.6422 34.8576 41.3265 35.1867 40.9979 35.5034C40.9099 35.5904 40.8218 35.6774 40.7317 35.7675C40.0807 36.4055 40.0807 36.4055 39.712 36.5899C39.3531 36.6034 38.9937 36.6071 38.6343 36.6055L38.0479 36.6045L37.3 36.5998L34.9276 36.5899V31.6456ZM40.8286 25.4258H45.7724L45.8427 27.7383L45.8734 28.4602C45.8817 29.0602 45.8692 29.6175 45.7724 30.2102C45.476 30.7409 45.1182 31.0977 44.6562 31.4862L44.3255 31.8607L44.0682 32.1341L43.8073 32.419L43.5396 32.6029C43.2338 32.5607 43.2338 32.5607 42.9021 32.443C42.5604 32.1404 42.2317 31.8248 41.9151 31.4961L41.651 31.23C41.0125 30.5789 41.0125 30.5789 40.8286 30.2102C40.8156 29.8513 40.8104 29.492 40.813 29.1326L40.814 28.5461L40.8182 27.7982L40.8286 25.4258Z" fill="black"/>
</svg>
