<svg width="74" height="69" viewBox="0 0 74 69" fill="none" xmlns="http://www.w3.org/2000/svg">
<g clip-path="url(#clip0_44_142)">
<path d="M62.0116 12.694C62.5295 12.9061 62.9067 13.181 63.2835 13.5727C63.7657 14.2205 63.9445 14.7429 64.0341 15.5308C64.5611 22.4223 60.1741 30.0258 57.1115 36.1082L56.9602 35.6859C57.0234 35.4222 57.0879 35.1586 57.1621 34.8976C57.6424 33.2018 57.8164 31.4381 57.4647 29.7032C57.2031 28.9414 56.7863 28.3286 56.1923 27.7523C55.5718 27.2528 54.8843 26.9859 54.1009 26.7806C50.834 26.2025 47.3364 27.0964 44.2699 28.0914C39.0634 29.8358 34.0829 32.2135 29.3283 34.841L28.8629 35.0966C24.551 37.4725 20.3558 40.0667 16.3051 42.8132L15.9582 43.0477C15.0221 43.682 14.0932 44.3253 13.1716 44.978L12.8209 45.226C9.58146 47.5004 9.58146 47.5004 6.4697 49.9226C6.05779 50.2586 5.67815 50.5551 5.16892 50.7505C6.48801 48.0269 9.39019 45.5598 11.5683 43.3918C11.8265 43.134 12.0833 42.8752 12.3401 42.6165C13.3499 41.6004 14.3789 40.6008 15.4273 39.6193L15.7409 39.3246C16.3373 38.7703 16.9511 38.2442 17.5885 37.7317C17.892 37.4837 18.1762 37.2232 18.4566 36.9527C18.9321 36.5035 19.4245 36.0839 19.9381 35.6725C20.3221 35.3607 20.6959 35.0395 21.0707 34.7179C21.7414 34.1474 22.4308 33.6083 23.137 33.0773C23.6651 32.6717 24.1796 32.2521 24.6946 31.8316C25.674 31.0338 26.6819 30.2778 27.7115 29.5366C27.9639 29.3537 28.2149 29.1691 28.4654 28.9836C30.6941 27.3327 32.9767 25.7488 35.3128 24.2322C35.7151 23.9703 36.1164 23.7075 36.5168 23.4438C38.0589 22.4335 39.6045 21.4394 41.2184 20.5315C41.6105 20.3101 42.0013 20.0868 42.3925 19.8636C57.2445 11.4272 57.2445 11.4272 62.0116 12.694Z" fill="white"/>
<path d="M66.322 25.5489C66.5012 26.0628 66.4733 26.5237 66.4429 27.0605L66.427 27.3439C66.4092 27.6521 66.3895 27.9598 66.3692 28.2675L66.3485 28.5896C65.9087 35.2578 64.7312 42.4903 60.7118 48.1819C59.662 49.6454 58.4523 50.918 57.1115 52.1583L56.8027 52.4499C54.5943 54.4229 51.6849 55.7292 48.7412 56.4327C44.8042 57.3023 40.6822 57.3693 36.7721 56.3388C34.0588 55.5787 31.5088 54.4709 28.9583 53.3344C24.8859 51.5196 20.8168 49.91 16.2029 50.2433C14.4777 50.3965 12.6807 50.7065 11.0802 51.3444L10.756 51.4544L10.3027 51.3138C13.4323 49.5964 16.5247 48.2039 20.2214 48.1724L20.6815 48.1598C23.1448 48.1414 25.4857 48.8597 27.8035 49.5641C30.301 50.3201 32.7633 50.9639 35.3682 51.3138L35.9396 51.3974C39.9581 51.8398 43.8628 51.3066 47.5985 49.906C50.3137 48.8076 52.5781 47.163 54.6954 45.2597L55.0736 44.934C60.443 40.1768 63.4969 33.0508 65.8128 26.6526L65.9506 26.273L66.0696 25.9401C66.1712 25.6895 66.1712 25.6895 66.322 25.5489Z" fill="white"/>
<mask id="mask0_44_142" style="mask-type:luminance" maskUnits="userSpaceOnUse" x="3" y="32" width="68" height="29">
<path d="M3.7 32.545H70.1767V60.8143H3.7V32.545Z" fill="white"/>
</mask>
<g mask="url(#mask0_44_142)">
<path d="M40.1055 64.6188C41.1866 65.0118 42.1525 65.6057 42.921 66.4206C43.1334 66.6825 43.3338 66.9453 43.5217 67.2233C43.1007 67.6865 42.5442 67.9452 41.9834 68.2354L41.6843 68.3922C41.4414 68.5193 41.1986 68.646 40.9549 68.7722L40.7713 68.6069C40.0935 68.0279 39.4223 67.6187 38.5388 67.3644C37.7896 67.2754 37.2688 67.355 36.5573 67.5841C35.9175 67.8437 35.5012 68.1424 35.0835 68.6626C34.6991 69.2327 34.5902 69.7632 34.5468 70.4263C34.5632 71.1351 34.7858 71.6594 35.1539 72.2739C35.5479 72.8255 35.9912 73.069 36.6045 73.383C37.2886 73.6341 37.9664 73.6571 38.6901 73.5591C39.2802 73.3637 39.7562 73.1279 40.1999 72.7141L38.2372 72.5735V70.039C39.0943 70.0359 39.9518 70.0332 40.8094 70.0314C41.1013 70.031 41.3928 70.0296 41.6847 70.0287C42.1034 70.0269 42.5221 70.026 42.9407 70.0256L43.3387 70.0233C43.6513 70.0233 43.964 70.0305 44.2767 70.039L44.4279 70.1801C44.4419 70.3746 44.4453 70.5696 44.4448 70.7645V71.1405L44.4424 71.5489L44.4419 71.9648C44.441 72.4055 44.439 72.8458 44.4371 73.2864C44.4366 73.5843 44.4357 73.8821 44.4352 74.1795C44.4337 74.9117 44.4308 75.643 44.4279 76.3748H41.4077L41.2569 75.812L41.0339 75.9252C39.8583 76.4714 38.6318 76.6776 37.3199 76.6448C36.0446 76.5006 34.9356 76.0168 33.8579 75.3892C32.8057 74.6287 32.1283 73.7033 31.5931 72.5735C31.1653 71.5947 31.212 70.5143 31.291 69.4762C31.4804 68.4232 31.9819 67.5194 32.6501 66.66C33.5101 65.7122 34.4808 65.0024 35.7363 64.5747C37.1281 64.2266 38.7247 64.2414 40.1055 64.6188ZM18.7587 64.5482L22.0709 64.5222L23.1086 64.5105C23.3837 64.5092 23.6588 64.5078 23.9344 64.5069L24.3579 64.5006C25.4293 64.5002 26.336 64.6803 27.2827 65.1569C27.9909 65.6583 28.4939 66.1874 28.8754 66.9417C29.1606 67.7543 29.123 68.6366 29.0262 69.4762C28.7685 70.2421 28.4187 70.8912 27.8015 71.4581C27.5125 71.6688 27.2384 71.8539 26.9122 72.0102H26.6101C26.8929 72.4536 27.1762 72.8965 27.4595 73.339L27.6985 73.7141C28.1634 74.4396 28.6456 75.1471 29.164 75.8407L29.3283 76.0932V76.3748C28.4105 76.44 27.4956 76.4768 26.575 76.4593L26.1173 76.4512C25.7044 76.3748 25.7044 76.3748 25.3363 76.1161C24.9923 75.7571 24.8483 75.4112 24.6474 74.967C24.3858 74.5294 24.102 74.1063 23.8168 73.6822L23.6154 73.3534L23.4155 73.0475L23.2421 72.7707L22.9862 72.5735H21.9292L21.7785 76.3748H18.7587V64.5482ZM21.7785 67.0827V69.8984C22.3166 69.9137 22.8538 69.9249 23.3924 69.9335L23.853 69.9478C24.2769 69.9532 24.6802 69.9496 25.1003 69.8984C25.5748 69.663 25.5748 69.663 25.8552 69.3351C26.0537 68.9654 26.0546 68.6227 26.0508 68.2148C26.0219 67.8873 26.0219 67.8873 25.7232 67.514C25.4288 67.2179 25.4288 67.2179 25.1003 67.0827C24.8483 67.0715 24.5963 67.0666 24.3444 67.0688L23.8929 67.0702L23.4203 67.0737L22.9448 67.0755C22.556 67.0778 22.1672 67.08 21.7785 67.0827ZM64.7086 64.3636C64.8213 64.3645 64.934 64.365 65.0506 64.3659C66.2541 64.3906 67.2085 64.6224 68.2472 65.1996C68.9366 65.656 69.4386 66.2252 69.7951 66.9417V67.505C69.3736 67.6699 68.952 67.8338 68.5305 67.9978L68.1672 68.1402L67.8189 68.275L67.498 68.3998C67.2282 68.4906 67.2282 68.4906 66.9262 68.4906L66.6525 68.0858C66.3663 67.6456 66.3663 67.6456 66.0012 67.452C65.3484 67.3199 64.7216 67.2961 64.0572 67.3644C63.5277 67.5513 63.5277 67.5513 63.151 67.7867V68.4906L63.6 68.5939C64.0283 68.6932 64.4566 68.7929 64.8844 68.894C65.3166 68.996 65.7492 69.0939 66.1842 69.1869C67.3357 69.4461 68.2872 69.7291 69.191 70.4618C69.6419 70.9038 69.8866 71.296 70.0972 71.8696C70.2017 72.6818 70.1892 73.4706 69.8611 74.2365C69.5027 74.8789 69.0604 75.3798 68.436 75.812C67.2913 76.4328 65.9655 76.5931 64.6614 76.6565C63.4916 76.6165 62.4838 76.3043 61.4561 75.7886C60.7845 75.3744 60.2729 74.8888 59.8292 74.263C59.6702 73.923 59.5946 73.6458 59.5271 73.2775C59.8923 73.14 60.2575 73.0039 60.6232 72.8682C60.878 72.7739 61.1324 72.6769 61.3853 72.578C62.1643 72.282 62.1643 72.282 62.5589 72.331C63.007 72.4882 63.2686 72.8237 63.6043 73.1369C64.0302 73.4046 64.3646 73.5452 64.8772 73.5942C65.4394 73.6067 65.9356 73.5784 66.4824 73.4536L66.7749 73.2775C66.9377 73.0115 66.9377 73.0115 66.9262 72.7141L66.6241 72.2919C66.2671 72.1841 65.9058 72.0933 65.5387 72.0192L64.881 71.8732C64.5515 71.8022 64.222 71.7317 63.892 71.6621C61.8155 71.22 61.8155 71.22 60.9638 70.5327C60.521 70.1221 60.2021 69.7619 59.9424 69.2295C59.7362 68.3967 59.7502 67.6564 60.018 66.8361C60.2324 66.3101 60.4415 65.9269 60.8862 65.5338C62.1032 64.7401 63.2228 64.3524 64.7086 64.3636ZM8.642 64.5482H11.9638C12.5516 65.6012 13.0353 66.6663 13.4872 67.775L13.8109 68.5598C13.9603 68.9232 14.1091 69.2866 14.2575 69.65C14.5167 70.2821 14.7769 70.9137 15.0365 71.5453C15.1792 71.8916 15.3213 72.2375 15.4629 72.5834C15.8984 73.6427 16.3436 74.6974 16.8071 75.7464C16.9468 76.0932 16.9468 76.0932 16.9468 76.3748H13.6245C13.0208 75.2486 13.0208 75.2486 12.7187 74.1224H8.03786L7.585 75.5303L7.13213 76.3748H3.80984C4.31956 74.7909 4.31956 74.7909 4.5537 74.2298L4.71316 73.8457L4.88178 73.4441C4.94056 73.3022 4.99982 73.1607 5.06052 73.0142C5.25034 72.5592 5.44064 72.1041 5.63142 71.6495L6.02165 70.7142C6.88258 68.6541 7.75362 66.5985 8.642 64.5482ZM10.3027 68.7722L9.94423 69.5728L9.74237 70.0233L9.54773 70.4618L9.37189 70.8427C9.22013 71.1747 9.22013 71.1747 9.24566 71.5879H11.511C11.4103 71.1203 11.3327 70.7776 11.1467 70.353L11.0244 70.0714L10.8972 69.7839L10.7685 69.4883C10.664 69.2493 10.559 69.0108 10.4539 68.7722H10.3027ZM46.3907 64.5482C46.8657 64.5442 47.3407 64.5415 47.8158 64.5397L48.2267 64.5361L48.6174 64.5343L48.9792 64.5321L49.2596 64.5482L49.4104 64.6893C49.4249 64.9081 49.4321 65.1268 49.4321 65.3465L49.4355 65.771L49.4374 66.2342C49.4408 66.5558 49.4441 66.877 49.448 67.1991C49.4533 67.7076 49.4576 68.2161 49.46 68.7246C49.462 69.2143 49.4682 69.7039 49.475 70.194L49.474 70.6509C49.488 71.4563 49.5766 72.0646 49.9962 72.7748C50.2969 73.167 50.6095 73.352 51.0716 73.5591C51.6372 73.6867 52.0322 73.7442 52.5988 73.6427C53.1581 73.4774 53.4828 73.2811 53.9217 72.9078C54.4454 72.132 54.5533 71.322 54.5928 70.4141C54.5986 70.141 54.6034 69.8674 54.6068 69.5943L54.6159 69.1545C54.6251 68.6954 54.6318 68.2368 54.6386 67.7777L54.6564 66.8388C54.6714 66.0751 54.6834 65.3119 54.6954 64.5482H57.7152C57.7229 65.5675 57.7282 66.5872 57.732 67.6065C57.7335 67.9533 57.7354 68.2997 57.7378 68.646C57.7417 69.1455 57.7436 69.6451 57.7446 70.1442L57.7494 70.6096C57.7494 71.7034 57.6815 72.7937 57.1019 73.7703C56.5464 74.6368 55.8218 75.3713 54.8973 75.9018C53.7271 76.462 52.7057 76.59 51.4006 76.5626C50.4862 76.5154 49.7385 76.2535 48.9576 75.812C47.9776 75.1642 47.2964 74.4315 46.7164 73.4553C46.1007 71.8359 46.1975 70.1213 46.2086 68.4272C46.2115 67.9762 46.2115 67.5252 46.2115 67.0746C46.2124 66.788 46.2134 66.5014 46.2143 66.2148L46.2148 65.8061L46.2177 65.4296L46.2196 65.0981C46.2399 64.8299 46.2399 64.8299 46.3907 64.5482ZM40.0491 41.1767C40.2968 41.3672 40.541 41.5613 40.7824 41.7594C41.1042 42.0267 41.1042 42.0267 41.4602 42.2679C41.8717 42.5864 42.1699 42.8712 42.4647 43.2885C42.629 44.0544 42.5943 44.7691 42.55 45.5503L42.4647 47.6531H37.7838L37.7178 45.6119L37.6889 44.9744C37.6677 43.6259 37.6677 43.6259 38.0002 43.0639C38.2637 42.7813 38.5335 42.5424 38.8408 42.3029L39.2084 41.9467L39.511 41.6695L39.8217 41.3834L40.0491 41.1767ZM44.6756 37.959C45.2021 37.9527 45.7229 37.9738 46.249 37.9999L48.5047 38.0794V42.444L46.315 42.5055L45.6319 42.5325C44.1856 42.5522 44.1856 42.5522 43.5829 42.2418C43.2799 41.9966 43.0236 41.745 42.7668 41.4584L42.3848 41.1156C42.2865 41.0227 42.1882 40.9297 42.0875 40.8335L41.7806 40.5438L41.559 40.3318C41.7633 40.1009 41.9714 39.8727 42.1839 39.648C42.4705 39.348 42.4705 39.348 42.7292 39.016C43.3035 38.3705 43.7501 38.0133 44.6756 37.959ZM32.1972 38.0794L34.3864 38.0178L35.07 37.9904C35.638 37.9828 36.1656 37.994 36.7268 38.0794C37.2293 38.3413 37.567 38.6571 37.9351 39.065L38.2897 39.357L38.5484 39.5838L38.8182 39.8143L38.9921 40.0505C38.9526 40.3205 38.9526 40.3205 38.8408 40.6134C38.5542 40.9148 38.2555 41.205 37.9443 41.4849C37.8609 41.5613 37.7781 41.6385 37.6923 41.7176C37.0756 42.2814 37.0756 42.2814 36.7268 42.444C36.3872 42.4561 36.0466 42.4588 35.7064 42.4575L35.1514 42.4566L34.4432 42.4525L32.1972 42.444V38.0794ZM37.7838 32.5881H42.4647L42.5307 34.6298L42.5601 35.2668C42.5683 35.7969 42.5563 36.2888 42.4647 36.8121C42.1839 37.2807 41.8452 37.5951 41.4077 37.9383L41.0946 38.2689L40.8513 38.5102L40.6041 38.7617L40.3507 38.9239C40.0612 38.8871 40.0612 38.8871 39.7471 38.7833C39.4238 38.516 39.1126 38.237 38.8129 37.9473L38.5629 37.7124C37.9582 37.1374 37.9582 37.1374 37.7838 36.8121C37.7718 36.495 37.767 36.1778 37.7694 35.8607L37.7703 35.3432L37.7747 34.6824L37.7838 32.5881Z" fill="white"/>
</g>
</g>
<defs>
<clipPath id="clip0_44_142">
<rect width="74" height="69" fill="white"/>
</clipPath>
</defs>
</svg>
