<svg width="61" height="38" viewBox="0 0 61 38" fill="none" xmlns="http://www.w3.org/2000/svg">
<path d="M57.0072 37.3553L38.3795 21.8883C37.835 21.4363 37.0458 21.4363 36.5014 21.8883L31.483 26.0552C30.9776 26.4743 30.2456 26.4743 29.7409 26.0552L24.7224 21.8883C24.178 21.4363 23.3889 21.4363 22.8438 21.8883L4.21618 37.3553C3.96001 37.568 4.11033 37.9846 4.444 37.9846H56.78C57.1129 37.9846 57.2633 37.568 57.0072 37.3553ZM20.517 18.3966L1.51927 2.62228C1.28775 2.42975 0.936035 2.59473 0.936035 2.89618V35.1324C0.936035 35.4337 1.28775 35.5987 1.51927 35.4068L20.517 19.6327C20.9042 19.3109 20.9042 18.7175 20.517 18.3966Z" fill="black"/>
<path d="M4.217 0.673904L29.8991 21.9983C30.3125 22.3415 30.9117 22.3415 31.3246 21.9983L57.0073 0.673904C57.2635 0.461232 57.113 0.0439453 56.7802 0.0439453H4.44417C4.11066 0.0439453 3.96018 0.461232 4.217 0.673904ZM59.7046 2.62227L40.707 18.3966C40.32 18.7175 40.32 19.3109 40.707 19.6326L59.7047 35.4068C59.9363 35.5987 60.2875 35.4345 60.2875 35.1329V2.89633C60.2875 2.59488 59.9363 2.4299 59.7047 2.62243" fill="black"/>
</svg>
