<svg width="37" height="51" viewBox="0 0 37 51" fill="none" xmlns="http://www.w3.org/2000/svg">
<path d="M17.3493 10.9994L12.07 1.81049C10.7271 -0.525902 8.40081 0.822844 8.40081 0.822844L5.14437 2.71246L13.11 16.5747L16.3664 14.6851C18.6922 13.3363 17.3493 10.9994 17.3493 10.9994ZM30.8809 50.1646L22.9153 36.3018C20.9484 37.4414 19.1452 35.3347 17.4869 33.075C16.3925 31.5717 15.3965 30.0101 14.5088 28.4711C13.6263 26.9284 12.7783 25.2816 12.0297 23.577C10.9113 21.0046 10.0675 18.3392 11.9627 17.2396L3.99717 3.37789C1.1901 5.00627 -4.3937 13.6769 6.70746 32.9962L6.70799 32.9972C17.8432 52.3753 28.0749 51.7935 30.8809 50.1646ZM36.268 43.9233L30.9887 34.7355C29.6453 32.3985 27.3195 33.7478 27.3195 33.7478L24.0625 35.6369L32.0287 49.4997L35.2851 47.6106C37.6109 46.2608 36.268 43.9233 36.268 43.9233Z" fill="black"/>
</svg>
