<svg width="51" height="47" viewBox="0 0 51 47" fill="none" xmlns="http://www.w3.org/2000/svg">
<path d="M27.1215 0C14.3849 0 4.0603 10.3246 4.0603 23.0612C4.05704 25.888 4.55778 28.6225 5.56251 31.2647L0.430199 40.8883C0.268203 41.1921 0.287739 41.4838 0.488808 41.7634C0.689915 42.0429 0.96027 42.1542 1.29987 42.0972L11.8333 40.3276C13.9398 42.1981 16.3102 43.6325 18.9445 44.6311C21.5787 45.6296 24.3043 46.1268 27.1215 46.1227C39.858 46.1227 50.1832 35.7975 50.1832 23.061C50.1832 10.3351 39.8474 0 27.1215 0ZM27.19 40.1083C24.9403 40.1203 22.7737 39.7019 20.6901 38.8533C18.6065 38.0047 16.7642 36.7903 15.163 35.2099L8.85272 36.3497C8.51776 36.4061 8.24935 36.2976 8.04748 36.0244C7.84563 35.7512 7.82085 35.4628 7.97314 35.1592L11.1599 29.0591C10.4097 27.0624 10.0482 24.9976 10.0755 22.8648C10.181 13.504 17.7601 6.01383 27.1215 6.01383C36.5368 6.01383 44.1687 13.6464 44.1687 23.0611C44.1687 32.4685 36.5967 40.0714 27.19 40.1083Z" fill="black"/>
<path d="M24.7119 17.3128L23.9676 14.1703C23.8816 13.8074 23.7253 13.4779 23.4985 13.1818C23.2718 12.8857 22.9944 12.6488 22.6665 12.4712C22.3385 12.2937 21.9886 12.1908 21.6167 12.1627C21.2448 12.1346 20.8834 12.1837 20.5325 12.31L18.8161 12.928C18.5365 13.0288 18.2814 13.173 18.0509 13.3607C17.8204 13.5483 17.6274 13.7688 17.4719 14.0221C17.3164 14.2754 17.2072 14.5473 17.1442 14.8378C17.0812 15.1283 17.0681 15.421 17.1047 15.716C17.7029 20.5762 20.4563 32.3336 33.1193 34.917C33.633 35.0219 34.1332 34.9767 34.6197 34.7813C35.1063 34.586 35.4989 34.2728 35.7974 33.8418L36.7826 32.4184C36.9802 32.1329 37.1157 31.8205 37.189 31.4811C37.2624 31.1417 37.268 30.8011 37.2059 30.4595C37.1438 30.1179 37.0186 29.8011 36.8305 29.5092C36.6424 29.2173 36.4056 28.9726 36.1201 28.775C36.1145 28.7711 36.1089 28.7672 36.1033 28.7634L33.9383 27.2894C33.7039 27.1298 33.4503 27.0114 33.1775 26.9343C32.9046 26.857 32.6266 26.825 32.3433 26.8381C32.06 26.8513 31.7861 26.9089 31.5216 27.011C31.2571 27.1131 31.0155 27.2545 30.7969 27.4351C30.5798 27.6149 30.3399 27.7559 30.0772 27.8581C29.8145 27.9604 29.5425 28.0186 29.261 28.0328C28.9794 28.047 28.7029 28.0164 28.4312 27.9412C28.1596 27.8659 27.9067 27.7497 27.6727 27.5926C26.3557 26.7053 24.5731 25.2339 23.4153 23.194C23.1483 22.726 23.036 22.2234 23.0783 21.6862C23.1206 21.149 23.3103 20.6703 23.6474 20.2499L24.2044 19.5574C24.4576 19.2424 24.6288 18.8879 24.7179 18.4938C24.807 18.0996 24.805 17.706 24.7119 17.3127" fill="black"/>
</svg>
